<?xml version="1.0" encoding="utf-8"?>
<svg width="567.66803" height="319.92416" id="svg3792" version="1.1" xmlns="http://www.w3.org/2000/svg">
  <g id="layer1" transform="translate(-156.71875,-413.875)">
    <path style="fill-opacity: 1; stroke-width: 1.31892px; stroke-linecap: butt; stroke-linejoin: miter; stroke-opacity: 1; fill: rgba(255, 255, 255, 0); stroke: rgb(255, 255, 255);" d="m 172.84808,575.11215 c 1.99846,-3.33079 25.98013,-29.97707 25.98013,-29.97707 l 6.66158,-9.99236 5.32926,-3.3308 50.62796,-26.64628 22.64936,3.99695 13.32315,-15.32163 7.32772,-9.32621 38.63714,-19.98474 25.98013,0.66618 8.66005,-15.98777 5.99541,-5.32928 41.96792,-19.31856 5.69336,1.30298 50.16623,6.35911 30.38237,7.06566 10.5985,5.18148 15.07341,18.37075 4.94596,-0.94209 19.78388,-10.59849 9.42088,-4.47493 20.25492,2.11968 40.74535,6.59463 32.50207,6.83017 6.59461,2.35519 8.00778,9.18537 9.18536,10.59851 13.18923,7.30118 5.1815,0.70658 -0.23554,6.59463 5.41702,26.84952 -1.17761,5.88807 -7.77222,9.18536 -32.5021,24.02327 -39.09665,29.6758 -60.52921,51.34384 -58.64507,49.69517 -30.85338,26.14299 -50.40177,-12.01164 -53.93458,-15.07344 -117.52561,-32.03102 -69.71457,-19.31282 -12.48267,-2.82626 -4.94596,-3.06177 -4.00389,-8.71436 0,-16.95757 -0.23552,-13.89581 0,-15.07344 0,-5.65253 z" id="path2983"/>
    <path style="fill-opacity: 1; stroke: rgb(255, 255, 255); fill: rgb(255, 255, 255);" d="m 426.09348,424.4437 c -1.79745,-0.0113 -3.09512,0.0873 -3.7919,0.2885 -2.17623,0.62823 -13.15627,5.76947 -24.40009,11.41697 -19.75587,9.92285 -20.58879,10.49344 -24.68865,17.31086 -2.33335,3.88006 -4.47601,7.69895 -4.73986,8.49059 -0.3099,0.92964 -4.41203,1.31586 -11.62304,1.07161 l -11.16963,-0.37094 -22.99874,11.45816 c -12.66171,6.31143 -24.13087,12.40748 -25.47175,13.56019 -1.34086,1.1527 -4.81079,6.16868 -7.70746,11.12843 l -5.27568,9.02638 -6.8007,-1.11285 c -16.18572,-2.60001 -15.77216,-2.74158 -67.47124,23.65823 -7.72574,3.94507 -7.48548,3.6726 -19.08318,21.67982 -5.45737,8.47341 -9.50341,13.20535 -13.39533,15.66222 -10.6751,5.99568 2.8079,1.11391 -9.71368,2.18217 l -1.0438,30.04905 c 0.31098,28.79299 0.42719,29.83135 5.15206,36.9711 2.92887,4.42584 4.37614,5.28212 10.8399,6.5946 7.25119,1.4724 28.68771,7.20097 125.5039,33.59138 l 173.43857,46.69816 c 1.4508,0.0524 5.01192,-2.36157 7.91353,-5.35813 2.90165,-2.99658 7.95706,-7.59696 11.21086,-10.22168 7.18123,-5.79274 68.80247,-57.57826 84.41116,-70.93337 31.23441,-26.72484 58.32149,-48.86235 84.16388,-68.79018 15.72842,-12.12864 31.6668,-24.40123 35.40487,-27.28525 10.16788,-7.8448 11.55324,-12.23249 7.54262,-23.98793 -1.18426,-3.47104 -2.51965,-10.74675 -2.9676,-16.15682 l -0.82432,-9.85073 -4.98717,-1.03042 c -8.09788,-1.67668 -11.84962,-4.29729 -17.43456,-12.20005 -2.90154,-4.10571 -6.35691,-8.87744 -7.66624,-10.63381 -1.36894,-1.83637 -5.16111,-4.02866 -8.94395,-5.15203 -9.88829,-2.93652 -37.23711,-8.32303 -50.65496,-9.97437 -6.52866,-0.80352 -18.37105,-2.62599 -26.29603,-4.03923 -18.303,-3.2639 -23.2708,-3.23743 -27.49134,0.0823 -1.84442,1.45083 -3.89605,2.63785 -4.57502,2.63785 -0.67897,0 -4.85867,2.39353 -9.27369,5.35813 -4.415,2.96462 -9.05991,5.1935 -10.34533,4.94596 -1.28538,-0.24754 -6.34636,-5.20473 -11.21084,-11.00477 -4.86446,-5.80006 -10.21245,-10.93102 -11.91152,-11.41694 -12.88809,-3.68576 -18.9437,-5.04533 -28.15082,-6.34731 -5.80327,-0.82067 -14.40924,-2.12445 -19.12437,-2.88514 -19.30001,-3.11372 -36.55986,-5.06273 -44.34886,-5.11084 z m 4.94598,2.92638 c 8.00675,-0.0885 18.36349,1.4814 35.44608,4.32771 6.16598,1.02738 15.959,2.52178 21.76226,3.33852 12.99357,1.82871 24.4001,4.92319 24.4001,6.63585 -7.75306,5.73525 -22.53125,16.92499 -32.4372,20.52577 -1.19621,-3.11732 -4.7549,-3.89283 -39.44407,-8.7379 -5.07786,-0.7092 -11.30978,-1.57699 -13.84871,-1.93717 -2.53891,-0.36016 -12.59675,-2.01724 -22.33928,-3.66825 l -17.72304,-3.00881 15.74465,-8.3257 c 11.73366,-6.20956 18.1449,-9.0362 28.4393,-9.15002 z m 87.54361,17.6406 c 0.35301,0.009 0.63895,0.0964 0.7831,0.24729 3.08573,3.23113 11.74666,15.65683 11.74666,16.85751 0,0.7812 -0.74189,2.21878 -1.64864,3.17367 -1.35003,1.42165 -0.93196,1.60781 2.30811,1.03042 9.80615,-1.74755 15.62427,-3.90062 21.43252,-7.87234 16.71465,-11.42967 15.45474,-11.10054 33.09676,-8.40816 8.44762,1.28921 23.60088,3.50899 33.63257,4.90477 10.03169,1.39575 21.60526,3.35874 25.71902,4.36893 4.11377,1.01016 11.16965,2.55469 15.70346,3.46217 8.2871,1.65874 10.21493,3.11973 5.93517,4.49259 -5.39434,2.34536 -27.94908,18.76778 -29.26365,18.46494 -1.13238,-0.48107 -10.07329,-2.20629 -19.86629,-3.83311 -21.02927,-3.49341 -28.58461,-4.81805 -54.07592,-9.39734 -26.35902,-4.73517 -30.95598,-5.13675 -33.67378,-2.96757 -2.81304,2.24514 -6.30027,5.2375 -9.0676,8.03717 -0.0136,-0.22002 -0.0404,-0.37002 -0.0823,-0.37093 -0.44527,-0.009 -57.92753,36.01186 -58.32117,36.02311 -2.46199,0.0703 -4.02211,0.55406 -5.85274,1.31893 -4.76275,1.99 -15.20361,14.61506 -16.52776,19.45411 -11.90004,5.82812 -61.84681,31.11011 -62.52526,31.15961 -8.0575,0.58799 -8.29179,0.51345 -4.53381,-1.2365 13.55851,-9.88572 26.18377,-14.68966 36.64138,-21.76224 5.37159,-3.50661 11.78908,-7.09012 14.26087,-7.99599 9.91678,-3.63431 14.86317,-7.24136 21.68436,-13.83824 7.70032,-8.08826 20.97323,-8.48755 26.25029,-15.21931 0.42071,-0.68071 -0.21662,-2.23627 -1.40135,-3.42096 -1.99266,-1.99265 -1.70982,-2.1295 3.62703,-1.85474 4.76878,0.24552 7.61598,-0.75818 16.44533,-5.85271 5.87456,-3.38963 11.26442,-6.14124 11.99397,-6.14124 0.72956,0 2.94795,-1.48381 4.90477,-3.29733 1.95682,-1.81353 4.13427,-3.2973 4.82229,-3.2973 0.68805,0 1.23652,-0.89028 1.23652,-1.97838 0,-1.08813 0.79663,-1.97839 1.77229,-1.97839 2.23409,0 6.55643,-4.68576 5.93516,-6.42977 -0.25579,-0.71807 -3.01184,0.41437 -6.14123,2.55542 -7.21468,4.40587 -18.02017,9.54225 -25.80146,12.94194 -4.55737,4.28142 -7.5922,1.98753 -7.37773,-5.64663 0.0835,-2.97123 -0.24548,-7.56517 -0.74189,-10.18047 -0.7472,-3.93659 -0.46183,-4.88614 1.56621,-5.56421 1.34735,-0.45046 5.10259,-2.89138 8.36694,-5.39934 3.26431,-2.50795 6.43455,-4.56811 7.04799,-4.61622 0.61344,-0.0481 2.99674,-1.41785 5.27568,-3.05002 5.15975,-3.6954 12.24322,-6.94225 14.71428,-6.88314 z m -132.96408,5.23447 c 0.25327,0.0136 0.52014,0.066 0.78313,0.12362 25.70033,6.205 58.91501,7.06764 79.6332,12.61957 3.3873,0.97825 6.24769,2.17242 7.62188,3.37237 1.86365,1.62737 3.40664,3.40792 3.46217,3.95678 0.0556,0.54886 0.4398,2.21744 0.82432,3.66827 0.38457,1.45083 1.00175,5.16029 1.36014,8.24327 0.52294,3.85241 2.71657,5.64127 0.68059,8.234 -0.17184,0.21611 -0.35788,0.4398 -0.55692,0.66874 -1.57675,1.8136 -3.21382,3.21198 -3.62706,3.13245 -10.16429,-1.95493 -12.65379,-2.74931 -13.56018,-4.36895 -0.5962,-1.06533 -1.84445,-2.72568 -2.7615,-3.66825 -0.91705,-0.94257 -3.3109,-3.89691 -5.31692,-6.55339 -3.5612,-4.71597 -10.27328,-8.35446 -17.64061,-9.56222 l -59.37641,-9.85786 c -0.89637,-1.09664 0.13961,-3.15591 2.99239,-6.54625 1.80556,-2.14579 3.2463,-3.21987 4.73988,-3.42096 0.24895,-0.0336 0.48862,-0.0558 0.7419,-0.0411 z m -34.74541,15.49736 c 9.48805,-0.21413 26.9158,0.93853 39.69139,2.84395 33.40613,4.98234 54.81778,9.29987 54.81778,11.04598 0,0.51736 -2.66416,2.34515 -5.93516,4.08045 -3.271,1.73522 -12.32131,6.92976 -20.07239,11.54056 -14.56772,8.66579 -15.51807,9.03155 -18.83589,7.21287 -1.94191,-1.06447 -18.00077,-3.90007 -67.92461,-12.0764 -13.78275,-2.25728 -25.21815,-4.28164 -25.43049,-4.49257 -0.65513,-0.65091 27.32162,-15.24511 37.30082,-19.45414 0.93332,-0.39366 3.22586,-0.62927 6.38855,-0.7007 z m 321.73513,0.98921 c 0.26909,0 2.50212,2.77948 4.94596,6.18245 4.86947,6.78063 12.12887,15.09662 14.96155,17.39332 -3.48014,2.54982 -40.51319,31.44557 -40.80421,31.73662 -3.2263,3.22629 -5.07235,-1.55445 -7.70748,-19.82508 -0.37518,-2.60144 -1.04576,-5.65925 -1.48379,-6.8007 -0.90868,-2.36799 -3.59661,-8.05666 -1.5886,-8.05666 4.8178,-1.91896 27.37075,-19.91347 31.67657,-20.62995 z m -136.81488,5.41114 c 21.75537,4.43915 98.34623,11.37901 102.77014,23.15183 3.50772,8.40391 1.35819,17.51324 2.72035,23.24603 0.85952,3.42461 0.81059,3.46702 -6.5122,3.37974 -3.13925,-0.0374 -5.1568,-0.2388 -6.27485,-0.66354 -2.17081,-3.73328 -6.01505,-7.28136 -8.57234,-10.66284 -2.19579,-3.92789 -5.07968,-6.58563 -8.06919,-8.12776 -38.42919,-11.10611 -57.33161,-11.11655 -85.73008,-16.73385 l -2.96757,-0.61825 c 4.46868,-9.48653 9.87885,-7.80669 12.63574,-12.97136 z m -84.47591,10.99297 5.93516,6.14124 c 2.34674,2.23483 8.67826,13.39192 8.05357,14.22065 -12.86435,4.01249 -24.87924,13.37856 -35.38004,19.57681 -4.74023,2.74409 -10.17564,6.01736 -12.07641,7.2953 -1.90076,1.27791 -4.50899,2.69569 -5.77028,3.13243 -1.26133,0.43672 -1.9636,1.29425 -1.56624,1.93717 0.39741,0.64295 0.44514,1.19528 0.0823,1.19528 -1.41015,0 -2.05043,-2.61757 -3.46217,-13.97236 l -1.48379,-11.74666 4.53381,-3.9568 c 4.74574,-4.12955 15.3311,-10.46071 31.57176,-18.87708 z m 64.66851,3.70949 c 0.17806,0.95781 0.85669,1.68455 2.22568,2.26689 1.65375,0.70349 17.25318,3.7213 34.66299,6.71827 17.40979,2.99697 36.10554,6.23093 41.54611,7.17166 10.52066,1.81911 14.5265,3.03594 14.50817,4.41016 -0.007,0.46641 -4.19669,3.83311 -9.3149,7.46017 -4.49158,0.40829 -23.50959,17.23524 -24.8947,17.64061 -7.70653,-2.87931 -16.74751,-3.64745 -25.14199,-5.06963 -13.73256,-2.22574 -27.46171,-4.24181 -52.75699,-9.19124 -16.5756,-3.2433 -23.64809,-1.64765 -27.36769,-4.08044 -1.15053,-0.75251 33.63588,-20.34372 46.53332,-27.32645 z m -212.2232,3.99799 c 31.40114,8.19058 55.89986,7.65996 86.06844,14.39232 2.96658,1.04185 7.00051,1.67974 8.78271,4.07634 4.5885,6.25243 7.1906,26.06504 5.63442,28.84781 -1.97709,3.53543 -6.24578,4.08108 -11.25208,1.48379 -1.90233,-0.98696 -5.26382,-1.98742 -7.50138,-2.22568 -4.0804,-1.4766 -11.34093,-8.5924 -13.93115,-11.16963 -5.43967,-5.43967 -7.81776,-6.84194 -13.97233,-8.11963 l -59.26917,-11.41696 c -3.62706,-0.37831 -6.81456,-0.89051 -7.08923,-1.15404 -1.21411,-1.16493 8.30549,-13.86174 10.88112,-14.50818 0.4203,-0.10548 1.00084,-0.1953 1.64865,-0.20619 z m 391.63813,0.12362 c 1.26451,0.1547 3.05313,0.50209 5.02841,1.0304 l 6.1,1.64867 0,1.15404 c -0.19076,-0.1885 -0.36572,-0.27136 -0.49458,-0.16491 -64.36036,48.08695 -131.38875,109.65624 -197.30285,150.11009 -0.51239,0.27421 -0.91859,0.48249 -1.27771,0.65944 -0.45545,0.22456 -4.61311,-4.20586 -6.05881,-5.48178 0.12181,-0.1463 0.22955,-0.28821 0.37096,-0.45336 1.22286,-1.42824 2.89038,-2.59664 3.70946,-2.59664 1.25972,0 17.92746,-12.09986 42.78262,-31.03594 3.26434,-2.48696 9.9849,-7.40763 14.92033,-10.96355 11.53016,-8.78879 20.70482,-15.88997 30.58246,-23.1636 5.79122,-5.84098 24.66176,-17.1402 35.60531,-26.1119 7.46106,-8.5407 16.12508,-14.75923 24.77668,-22.27605 0.31473,-0.26274 40.62069,-31.82547 41.2576,-32.35487 z m 11.12841,7.87231 0,3.42096 c 0.009,4.8398 1.18748,12.27218 2.63787,16.89874 2.77427,8.84934 2.05724,14.10737 -2.10205,15.70344 -1.17813,0.45207 -3.68969,2.29443 -5.6054,4.08042 -1.91576,1.78599 -9.43858,7.71673 -16.69267,13.18923 -43.47179,31.63835 -84.24305,67.86972 -127.44106,103.90653 -0.0608,0.0703 -0.13973,0.13678 -0.20619,0.20596 -0.19258,0.2012 -0.38368,0.39314 -0.61825,0.57703 -0.41628,0.32637 -0.69219,0.55331 -0.94797,0.74192 -0.063,0.0463 -0.19371,0.12702 -0.24731,0.16491 l -61.12391,51.02596 -8.40813,7.99598 c -0.0397,0.0508 -0.081,0.11296 -0.12362,0.1649 -0.29681,0.36209 -0.66312,0.73146 -1.11283,1.15407 -0.4009,0.37672 -0.76237,0.67922 -1.11287,0.94797 -0.0309,0.0238 -0.0517,0.0597 -0.0823,0.0823 -1.77052,1.3208 -3.2214,1.30665 -6.96559,0.41215 -96.99391,-26.77448 -195.19266,-52.67511 -293.37181,-78.99329 -2.54282,-1.23183 -5.90367,-2.37323 -7.49726,-4.10766 -0.43709,-0.48419 -0.90348,-1.05559 -1.41199,-1.72227 -3.39966,-4.45726 -3.44706,-4.99763 -3.33852,-23.28725 2.96425,-28.83759 -7.38273,-23.68299 6.88315,-36.92989 47.15109,9.29667 100.26416,21.47619 140.25909,30.04656 -0.091,-0.0594 -0.20075,-0.10412 -0.28851,-0.16491 -0.0705,-0.049 -0.10048,-0.16785 -0.041,-0.32972 60.25052,13.39161 123.46022,26.81627 179.37371,38.86706 0.91276,1.78179 3.40828,4.90588 5.4522,7.03876 0.41836,0.43658 -20.16614,69.11279 -19.80305,69.44628 0.8571,0.78732 1.51157,1.23166 1.73382,1.06977 0.40805,-0.29826 21.76869,-68.92579 22.20776,-69.17553 C 596.0801,600.34006 701.72739,495.63749 706.5297,498.83906 z m -443.98292,8.40816 10.63383,1.36014 c 5.84922,0.74455 12.2397,1.3603 14.21965,1.36014 3.28019,-2.5e-4 19.28134,2.70279 56.13673,9.5622 23.94079,4.4558 24.05963,3.98356 -3.99799,18.79467 -13.32183,7.03236 -25.68136,12.81886 -27.45012,12.8183 -2.24493,-7.1e-4 -0.62634,-1.25768 5.35813,-4.08042 10.3973,-4.90416 21.47921,-11.82363 20.48454,-12.8183 -0.39918,-0.3992 -2.34177,0.45157 -4.32771,1.89594 -6.84575,4.97896 -24.66299,12.12957 -31.98391,12.85953 -27.83518,-6.11931 -58.33217,-11.8557 -81.77332,-14.59061 -3.26434,-0.4234 -6.40833,-1.18909 -6.96557,-1.68986 -0.55727,-0.50079 10.38632,-6.43203 24.31767,-13.18925 z m 350.7927,3.09124 c 0.90959,-0.0794 3.28168,2.3899 7.78988,7.95476 2.87761,3.55205 5.10451,6.86903 6.45563,9.53706 1.8925,4.10671 2.2719,6.29416 1.25183,10.4529 -11.76313,6.74445 -40.52977,32.61907 -42.61774,29.88187 -6.34952,-10.34408 -2.13261,-1.04773 -11.95274,-27.20283 11.22035,-13.64096 28.93366,-16.96683 38.61973,-29.71701 0,-0.57361 0.15039,-0.88028 0.45341,-0.90675 z m -148.52985,8.23919 12.02123,2.55936 c 0.66429,0.10207 1.20081,0.24792 1.60743,0.37096 0.10502,0.0317 0.28177,0.0485 0.37093,0.0823 32.52937,6.18349 56.55946,12.13866 86.51328,18.5063 0.35304,-0.18986 0.78295,-0.28442 1.27771,-0.20619 1.10283,0.17466 1.80385,1.21372 1.68989,2.39056 4.23144,9.64785 8.54722,21.65754 11.864,30.76202 0.27389,0.75178 -25.58749,-4.12506 -25.3035,-3.35327 0.16219,0.44114 2.14797,2.20597 2.31424,2.65455 10.34297,10.64508 -1.93908,2.57347 11.00161,13.13147 0.0159,-0.0581 0.0159,-0.11091 0.0411,-0.1649 -13.41829,-16.88815 -14.87882,-24.71596 -22.56069,-29.73886 -11.47124,-7.50061 -30.261,-7.92725 -70.75316,-16.34108 -1.90659,-0.22229 -3.86327,-0.44769 -5.23448,-0.57701 -8.27914,-1.15817 -14.61967,-2.4961 -21.22636,-5.15196 -0.64942,-0.67232 0.0513,-2.16521 2.10203,-5.2757 3.35423,-4.76091 8.0554,-7.07512 12.7367,-9.96571 z m -96.04822,10.3906 c 0.95992,-0.0113 1.52208,0.38956 2.10204,1.03042 0.7968,6.85863 16.86675,15.46717 15.3102,21.08704 -8.54076,10.38559 -52.6872,31.11744 -61.06037,38.8828 -1.91558,1.91556 -3.82404,2.94852 -4.24531,2.2669 -0.60935,-0.98572 -6.05881,-35.20809 -6.05881,-38.04267 12.4409,-2.16702 27.04655,-12.96227 36.55896,-17.5994 11.11584,-5.59614 15.28151,-7.60193 17.39329,-7.62502 z m -158.9716,7.66633 c 2.31983,0.0159 4.74083,0.45432 5.5642,1.27771 35.88071,5.89572 51.59694,11.36577 85.60644,16.69262 2.89873,0.45547 6.60819,1.73139 8.24329,2.80271 1.22055,10.64293 5.42884,10.9083 5.85274,18.13523 0.12679,2.53891 0.35095,6.54516 0.49458,8.90274 0.14358,2.35756 -0.0249,6.08902 -0.37094,8.3257 -0.67659,4.37542 -1.24582,4.59598 -8.28451,2.96757 -75.82144,-11.29379 -41.24474,-10.15372 -125.00931,-25.47171 9.21229,-9.97908 17.09041,-22.01976 22.83388,-32.43731 0.50306,-0.81398 2.74979,-1.21168 5.06963,-1.19526 z m 233.57327,0.86554 c 4.25665,1.36322 14.91207,3.3243 42.2468,8.36694 36.55907,6.74431 51.12089,10.15424 54.24076,12.69463 1.35195,1.10087 1.7426,1.63623 0.86554,1.19528 -20.57373,6.11844 -33.88386,21.99944 -51.8502,30.70621 -32.00663,-7.91763 27.81269,8.04246 -101.35111,-23.57572 -2.85182,0.56412 46.87899,-24.66048 55.84821,-29.38727 z m 96.44634,28.15077 c 14.51215,1.64159 20.46657,22.16403 20.03117,22.09201 -17.82897,6.59826 -43.27579,39.58432 -57.70295,40.68057 2.67451,-15.76545 -11.31833,-30.60639 -9.15002,-32.31365 8.89797,-10.78014 34.54148,-28.68194 46.8218,-30.45893 z m -165.97838,3.42098 c 40.80113,9.0561 69.36627,15.51728 109.51195,24.27645 l 3.29729,1.85472 c 3.14833,14.55618 10.13923,23.98033 10.13923,37.46571 l -2.59663,2.10203 c -69.23848,-12.87334 -92.31187,-18.65345 -147.92561,-29.88187 9.88847,-11.29783 17.02935,-25.43616 26.62578,-35.52853 l 0.61825,0.12362 z m -9.72708,1.40136 c 0.44447,-0.115 -0.0637,0.56725 -1.27771,1.93717 -1.52634,1.72259 -5.45254,7.28705 -8.69666,12.36491 -14.29947,19.25977 -13.31077,21.16074 -34.4569,16.65143 0.97732,-1.13572 1.7311,-2.58267 1.7311,-3.42098 0,-0.95471 7.27058,-6.03958 16.15683,-11.29328 8.88624,-5.2537 18.82765,-11.34658 22.09198,-13.51897 2.59596,-1.72763 4.00689,-2.60526 4.45136,-2.72028 z" id="path3811"/>
  </g>
</svg>