<?xml version="1.0" encoding="UTF-8" standalone="no"?>
<!-- Created with Inkscape (http://www.inkscape.org/) -->
<svg
   xmlns:svg="http://www.w3.org/2000/svg"
   xmlns="http://www.w3.org/2000/svg"
   version="1.0"
   width="263.95285"
   height="255.66962"
   id="svg2">
  <defs
     id="defs4" />
  <g
     transform="translate(0.4545649,-0.202038)"
     id="layer7">
    <rect
       width="263.95285"
       height="255.66962"
       x="-0.45456487"
       y="0.20203798"
       style="fill:#e6e6e6;fill-opacity:1;stroke:none;stroke-width:0.5;stroke-linecap:round;stroke-linejoin:bevel;stroke-miterlimit:4;stroke-dasharray:none;stroke-dashoffset:0;stroke-opacity:1;display:inline"
       id="rect6134" />
    <text
       x="152.88083"
       y="62.424538"
       style="font-size:12px;font-style:normal;font-weight:normal;writing-mode:lr-tb;fill:#000000;fill-opacity:1;stroke:none;stroke-width:1px;stroke-linecap:butt;stroke-linejoin:miter;stroke-opacity:1;display:inline;font-family:Bitstream Vera Sans"
       id="text6136"
       xml:space="preserve"><tspan
         x="152.88083"
         y="62.424538"
         id="tspan6138" /></text>
    <path
       d="M 149.89798,52.240334 L 151.29251,52.240334 L 153.439,60.867287 L 155.57864,52.240334 L 157.1304,52.240334 L 159.27689,60.867287 L 161.41653,52.240334 L 162.8179,52.240334 L 160.25443,62.446388 L 158.5181,62.446388 L 156.36478,53.587013 L 154.19095,62.446388 L 152.45462,62.446388 L 149.89798,52.240334"
       style="font-size:14px;font-style:normal;font-variant:normal;font-weight:normal;font-stretch:normal;text-align:start;line-height:100%;writing-mode:lr-tb;text-anchor:start;fill:#000000;fill-opacity:1;stroke:none;stroke-width:1px;stroke-linecap:butt;stroke-linejoin:miter;stroke-opacity:1;display:inline;font-family:Bitstream Vera Sans"
       id="text6180" />
    <path
       d="M 156.08734,70.763161 L 157.34515,70.763161 L 157.34515,78.419411 L 156.08734,78.419411 L 156.08734,70.763161 M 156.08734,67.782692 L 157.34515,67.782692 L 157.34515,69.375465 L 156.08734,69.375465 L 156.08734,67.782692"
       style="font-size:14px;font-style:normal;font-variant:normal;font-weight:normal;font-stretch:normal;text-align:start;line-height:100%;writing-mode:lr-tb;text-anchor:start;fill:#000000;fill-opacity:1;stroke:none;stroke-width:1px;stroke-linecap:butt;stroke-linejoin:miter;stroke-opacity:1;display:inline;font-family:Bitstream Vera Sans"
       id="text6184" />
    <path
       d="M 152.94589,83.818855 L 154.21054,83.818855 L 154.21054,90.101082 L 157.96347,86.799324 L 159.56992,86.799324 L 155.50937,90.381355 L 159.74081,94.455574 L 158.10019,94.455574 L 154.21054,90.716316 L 154.21054,94.455574 L 152.94589,94.455574 L 152.94589,83.818855"
       style="font-size:14px;font-style:normal;font-variant:normal;font-weight:normal;font-stretch:normal;text-align:start;line-height:100%;writing-mode:lr-tb;text-anchor:start;fill:#000000;fill-opacity:1;stroke:none;stroke-width:1px;stroke-linecap:butt;stroke-linejoin:miter;stroke-opacity:1;display:inline;font-family:Bitstream Vera Sans"
       id="text6188" />
    <path
       d="M 156.0242,102.77238 L 157.28201,102.77238 L 157.28201,110.42863 L 156.0242,110.42863 L 156.0242,102.77238 M 156.0242,99.791908 L 157.28201,99.791908 L 157.28201,101.38468 L 156.0242,101.38468 L 156.0242,99.791908"
       style="font-size:14px;font-style:normal;font-variant:normal;font-weight:normal;font-stretch:normal;text-align:start;line-height:100%;writing-mode:lr-tb;text-anchor:start;fill:#000000;fill-opacity:1;stroke:none;stroke-width:1px;stroke-linecap:butt;stroke-linejoin:miter;stroke-opacity:1;display:inline;font-family:Bitstream Vera Sans"
       id="text6192" />
    <path
       d="M 154.21057,125.15852 L 154.21057,129.21906 L 152.94592,129.21906 L 152.94592,118.6507 L 154.21057,118.6507 L 154.21057,119.81281 C 154.47489,119.35709 154.80757,119.01985 155.20862,118.80109 C 155.61421,118.57779 156.09729,118.46614 156.65784,118.46613 C 157.58752,118.46614 158.34175,118.83528 158.92053,119.57355 C 159.50386,120.31184 159.79552,121.28254 159.79553,122.48566 C 159.79552,123.68879 159.50386,124.65949 158.92053,125.39777 C 158.34175,126.13606 157.58752,126.5052 156.65784,126.5052 C 156.09729,126.5052 155.61421,126.39582 155.20862,126.17707 C 154.80757,125.95376 154.47489,125.61425 154.21057,125.15852 M 158.48987,122.48566 C 158.48986,121.56054 158.29846,120.83593 157.91565,120.31184 C 157.53739,119.7832 157.01558,119.51887 156.35022,119.51887 C 155.68485,119.51887 155.16076,119.7832 154.77795,120.31184 C 154.3997,120.83593 154.21057,121.56054 154.21057,122.48566 C 154.21057,123.4108 154.3997,124.13768 154.77795,124.66633 C 155.16076,125.19042 155.68485,125.45246 156.35022,125.45246 C 157.01558,125.45246 157.53739,125.19042 157.91565,124.66633 C 158.29846,124.13768 158.48986,123.4108 158.48987,122.48566"
       style="font-size:14px;font-style:normal;font-variant:normal;font-weight:normal;font-stretch:normal;text-align:start;line-height:100%;writing-mode:lr-tb;text-anchor:start;fill:#000000;fill-opacity:1;stroke:none;stroke-width:1px;stroke-linecap:butt;stroke-linejoin:miter;stroke-opacity:1;display:inline;font-family:Bitstream Vera Sans"
       id="text6196" />
    <path
       d="M 159.70041,138.10591 L 159.70041,138.72115 L 153.91721,138.72115 C 153.97189,139.58703 154.23166,140.24784 154.6965,140.70357 C 155.1659,141.15474 155.81759,141.38033 156.65158,141.38033 C 157.13465,141.38033 157.60177,141.32108 158.05295,141.20259 C 158.50867,141.0841 158.95984,140.90637 159.40646,140.66939 L 159.40646,141.85884 C 158.95528,142.05025 158.49272,142.19608 158.01877,142.29634 C 157.5448,142.3966 157.06401,142.44673 156.57639,142.44673 C 155.35503,142.44673 154.3866,142.09126 153.67111,141.38033 C 152.96017,140.66939 152.60471,139.7078 152.60471,138.49556 C 152.60471,137.24231 152.94194,136.24882 153.61642,135.51509 C 154.29546,134.77682 155.20919,134.40768 156.35764,134.40767 C 157.38758,134.40768 158.20105,134.74036 158.79807,135.40572 C 159.39962,136.06653 159.7004,136.96659 159.70041,138.10591 M 158.4426,137.73677 C 158.43348,137.04862 158.23979,136.49947 157.86154,136.08931 C 157.48784,135.67916 156.99109,135.47408 156.37131,135.47408 C 155.66948,135.47408 155.10666,135.67232 154.68283,136.0688 C 154.26356,136.46529 154.02202,137.02356 153.95822,137.74361 L 158.4426,137.73677"
       style="font-size:14px;font-style:normal;font-variant:normal;font-weight:normal;font-stretch:normal;text-align:start;line-height:100%;writing-mode:lr-tb;text-anchor:start;fill:#000000;fill-opacity:1;stroke:none;stroke-width:1px;stroke-linecap:butt;stroke-linejoin:miter;stroke-opacity:1;display:inline;font-family:Bitstream Vera Sans"
       id="text6200" />
    <path
       d="M 158.37906,151.82204 L 158.37906,147.67946 L 159.63687,147.67946 L 159.63687,158.31618 L 158.37906,158.31618 L 158.37906,157.16774 C 158.11473,157.62347 157.77977,157.96299 157.37418,158.18629 C 156.97313,158.40504 156.49006,158.51442 155.92496,158.51442 C 154.99982,158.51442 154.24559,158.14528 153.66226,157.407 C 153.08348,156.66872 152.7941,155.69802 152.7941,154.49489 C 152.7941,153.29177 153.08348,152.32107 153.66226,151.58278 C 154.24559,150.84451 154.99982,150.47536 155.92496,150.47536 C 156.49006,150.47536 156.97313,150.58702 157.37418,150.81032 C 157.77977,151.02908 158.11473,151.36631 158.37906,151.82204 M 154.09293,154.49489 C 154.09292,155.42002 154.28205,156.14691 154.66031,156.67555 C 155.04312,157.19964 155.56721,157.46169 156.23257,157.46169 C 156.89793,157.46169 157.42202,157.19964 157.80484,156.67555 C 158.18765,156.14691 158.37905,155.42002 158.37906,154.49489 C 158.37905,153.56976 158.18765,152.84515 157.80484,152.32106 C 157.42202,151.79242 156.89793,151.5281 156.23257,151.52809 C 155.56721,151.5281 155.04312,151.79242 154.66031,152.32106 C 154.28205,152.84515 154.09292,153.56976 154.09293,154.49489"
       style="font-size:14px;font-style:normal;font-variant:normal;font-weight:normal;font-stretch:normal;text-align:start;line-height:100%;writing-mode:lr-tb;text-anchor:start;fill:#000000;fill-opacity:1;stroke:none;stroke-width:1px;stroke-linecap:butt;stroke-linejoin:miter;stroke-opacity:1;display:inline;font-family:Bitstream Vera Sans"
       id="text6204" />
    <path
       d="M 156.08734,166.82234 L 157.34515,166.82234 L 157.34515,174.47859 L 156.08734,174.47859 L 156.08734,166.82234 M 156.08734,163.84187 L 157.34515,163.84187 L 157.34515,165.43465 L 156.08734,165.43465 L 156.08734,163.84187"
       style="font-size:14px;font-style:normal;font-variant:normal;font-weight:normal;font-stretch:normal;text-align:start;line-height:100%;writing-mode:lr-tb;text-anchor:start;fill:#000000;fill-opacity:1;stroke:none;stroke-width:1px;stroke-linecap:butt;stroke-linejoin:miter;stroke-opacity:1;display:inline;font-family:Bitstream Vera Sans"
       id="text6208" />
    <path
       d="M 156.85205,186.60298 C 155.83577,186.60299 155.13167,186.7192 154.73975,186.95161 C 154.34782,187.18404 154.15185,187.58052 154.15186,188.14107 C 154.15185,188.58768 154.29769,188.94315 154.58936,189.20747 C 154.88558,189.46724 155.28662,189.59712 155.79248,189.59712 C 156.48974,189.59712 157.04801,189.35103 157.46729,188.85884 C 157.89111,188.3621 158.10302,187.70357 158.10303,186.88326 L 158.10303,186.60298 L 156.85205,186.60298 M 159.36084,186.08345 L 159.36084,190.45161 L 158.10303,190.45161 L 158.10303,189.28951 C 157.81591,189.75435 157.45817,190.09842 157.02979,190.32173 C 156.6014,190.54048 156.07731,190.64986 155.45752,190.64986 C 154.67366,190.64986 154.04931,190.43111 153.58447,189.99361 C 153.12419,189.55155 152.89404,188.96138 152.89404,188.2231 C 152.89404,187.36177 153.18115,186.71236 153.75537,186.27486 C 154.33414,185.83736 155.19547,185.61861 156.33936,185.61861 L 158.10303,185.61861 L 158.10303,185.49556 C 158.10302,184.91679 157.91162,184.47018 157.52881,184.15572 C 157.15055,183.83671 156.61735,183.67721 155.9292,183.6772 C 155.4917,183.67721 155.06559,183.72962 154.65088,183.83443 C 154.23616,183.93925 153.8374,184.09648 153.45459,184.30611 L 153.45459,183.144 C 153.91487,182.96627 154.36149,182.83411 154.79443,182.74751 C 155.22737,182.65637 155.64892,182.6108 156.05908,182.61079 C 157.1665,182.6108 157.99365,182.89791 158.54053,183.47212 C 159.0874,184.04635 159.36083,184.91679 159.36084,186.08345"
       style="font-size:14px;font-style:normal;font-variant:normal;font-weight:normal;font-stretch:normal;text-align:start;line-height:100%;writing-mode:lr-tb;text-anchor:start;fill:#000000;fill-opacity:1;stroke:none;stroke-width:1px;stroke-linecap:butt;stroke-linejoin:miter;stroke-opacity:1;display:inline;font-family:Bitstream Vera Sans"
       id="text6212" />
    <path
       d="M 160.91199,196.81532 L 160.91199,198.27138 C 160.44714,197.83844 159.95039,197.51488 159.42175,197.30067 C 158.89766,197.08649 158.33939,196.97939 157.74695,196.97939 C 156.58028,196.97939 155.68705,197.33714 155.06726,198.05263 C 154.44747,198.76357 154.13757,199.79352 154.13757,201.14247 C 154.13757,202.48688 154.44747,203.51682 155.06726,204.23232 C 155.68705,204.94325 156.58028,205.29872 157.74695,205.29872 C 158.33939,205.29872 158.89766,205.19163 159.42175,204.97743 C 159.95039,204.76324 160.44714,204.43967 160.91199,204.00673 L 160.91199,205.44911 C 160.42891,205.77724 159.91621,206.02333 159.3739,206.18739 C 158.83613,206.35146 158.26647,206.43349 157.66492,206.43349 C 156.11999,206.43349 154.9032,205.96181 154.01453,205.01845 C 153.12585,204.07053 152.68152,202.77854 152.68152,201.14247 C 152.68152,199.50185 153.12585,198.20986 154.01453,197.26649 C 154.9032,196.31859 156.11999,195.84463 157.66492,195.84462 C 158.27559,195.84463 158.84981,195.92666 159.38757,196.09071 C 159.92988,196.25023 160.43802,196.49176 160.91199,196.81532 M 166.48328,202.38661 C 165.467,202.38662 164.7629,202.50283 164.37097,202.73524 C 163.97904,202.96767 163.78308,203.36415 163.78308,203.9247 C 163.78308,204.37131 163.92891,204.72678 164.22058,204.9911 C 164.5168,205.25087 164.91784,205.38075 165.42371,205.38075 C 166.12097,205.38075 166.67923,205.13466 167.09851,204.64247 C 167.52233,204.14573 167.73425,203.4872 167.73425,202.66689 L 167.73425,202.38661 L 166.48328,202.38661 M 168.99207,201.86708 L 168.99207,206.23524 L 167.73425,206.23524 L 167.73425,205.07314 C 167.44714,205.53798 167.08939,205.88206 166.66101,206.10536 C 166.23262,206.32411 165.70853,206.43349 165.08875,206.43349 C 164.30489,206.43349 163.68054,206.21474 163.2157,205.77724 C 162.75541,205.33518 162.52527,204.74501 162.52527,204.00673 C 162.52527,203.1454 162.81238,202.49599 163.3866,202.05849 C 163.96537,201.62099 164.8267,201.40224 165.97058,201.40224 L 167.73425,201.40224 L 167.73425,201.27919 C 167.73425,200.70042 167.54284,200.25381 167.16003,199.93935 C 166.78177,199.62034 166.24857,199.46084 165.56042,199.46083 C 165.12292,199.46084 164.69682,199.51325 164.2821,199.61806 C 163.86739,199.72288 163.46863,199.88011 163.08582,200.08974 L 163.08582,198.92763 C 163.5461,198.7499 163.99271,198.61774 164.42566,198.53114 C 164.8586,198.44001 165.28015,198.39443 165.69031,198.39442 C 166.79772,198.39443 167.62487,198.68154 168.17175,199.25575 C 168.71862,199.82998 168.99206,200.70042 168.99207,201.86708 M 176.02625,199.75478 C 175.88496,199.67275 175.73002,199.61351 175.5614,199.57704 C 175.39733,199.53603 175.21504,199.51552 175.01453,199.51552 C 174.30358,199.51552 173.75671,199.74795 173.3739,200.21278 C 172.99564,200.67308 172.80652,201.33616 172.80652,202.20204 L 172.80652,206.23524 L 171.54187,206.23524 L 171.54187,198.57899 L 172.80652,198.57899 L 172.80652,199.76845 C 173.07084,199.30361 173.41491,198.95954 173.83875,198.73622 C 174.26257,198.50836 174.77754,198.39443 175.38367,198.39442 C 175.47025,198.39443 175.56595,198.40127 175.67078,198.41493 C 175.77559,198.42405 175.8918,198.44001 176.01941,198.46278 L 176.02625,199.75478 M 181.54968,199.75478 C 181.4084,199.67275 181.25345,199.61351 181.08484,199.57704 C 180.92077,199.53603 180.73848,199.51552 180.53796,199.51552 C 179.82702,199.51552 179.28015,199.74795 178.89734,200.21278 C 178.51908,200.67308 178.32995,201.33616 178.32996,202.20204 L 178.32996,206.23524 L 177.06531,206.23524 L 177.06531,198.57899 L 178.32996,198.57899 L 178.32996,199.76845 C 178.59428,199.30361 178.93835,198.95954 179.36218,198.73622 C 179.78601,198.50836 180.30098,198.39443 180.9071,198.39442 C 180.99369,198.39443 181.08939,198.40127 181.19421,198.41493 C 181.29903,198.42405 181.41524,198.44001 181.54285,198.46278 L 181.54968,199.75478 M 182.88269,198.57899 L 184.1405,198.57899 L 184.1405,206.23524 L 182.88269,206.23524 L 182.88269,198.57899 M 182.88269,195.59853 L 184.1405,195.59853 L 184.1405,197.1913 L 182.88269,197.1913 L 182.88269,195.59853 M 190.245,202.38661 C 189.22872,202.38662 188.52461,202.50283 188.13269,202.73524 C 187.74076,202.96767 187.5448,203.36415 187.5448,203.9247 C 187.5448,204.37131 187.69063,204.72678 187.9823,204.9911 C 188.27852,205.25087 188.67956,205.38075 189.18542,205.38075 C 189.88269,205.38075 190.44095,205.13466 190.86023,204.64247 C 191.28405,204.14573 191.49597,203.4872 191.49597,202.66689 L 191.49597,202.38661 L 190.245,202.38661 M 192.75378,201.86708 L 192.75378,206.23524 L 191.49597,206.23524 L 191.49597,205.07314 C 191.20886,205.53798 190.85111,205.88206 190.42273,206.10536 C 189.99434,206.32411 189.47025,206.43349 188.85046,206.43349 C 188.06661,206.43349 187.44226,206.21474 186.97742,205.77724 C 186.51713,205.33518 186.28699,204.74501 186.28699,204.00673 C 186.28699,203.1454 186.5741,202.49599 187.14832,202.05849 C 187.72709,201.62099 188.58842,201.40224 189.7323,201.40224 L 191.49597,201.40224 L 191.49597,201.27919 C 191.49597,200.70042 191.30456,200.25381 190.92175,199.93935 C 190.54349,199.62034 190.01029,199.46084 189.32214,199.46083 C 188.88464,199.46084 188.45853,199.51325 188.04382,199.61806 C 187.62911,199.72288 187.23034,199.88011 186.84753,200.08974 L 186.84753,198.92763 C 187.30782,198.7499 187.75443,198.61774 188.18738,198.53114 C 188.62032,198.44001 189.04187,198.39443 189.45203,198.39442 C 190.55944,198.39443 191.38659,198.68154 191.93347,199.25575 C 192.48034,199.82998 192.75378,200.70042 192.75378,201.86708 M 200.38953,202.31825 C 200.38952,201.4068 200.20039,200.70042 199.82214,200.19911 C 199.44844,199.69782 198.92207,199.44717 198.24304,199.44716 C 197.56856,199.44717 197.04219,199.69782 196.66394,200.19911 C 196.29024,200.70042 196.10339,201.4068 196.10339,202.31825 C 196.10339,203.22516 196.29024,203.92926 196.66394,204.43056 C 197.04219,204.93186 197.56856,205.18251 198.24304,205.18251 C 198.92207,205.18251 199.44844,204.93186 199.82214,204.43056 C 200.20039,203.92926 200.38952,203.22516 200.38953,202.31825 M 201.64734,205.28505 C 201.64733,206.58843 201.35794,207.55686 200.77917,208.19032 C 200.20039,208.82834 199.314,209.14735 198.12,209.14735 C 197.67793,209.14735 197.26094,209.11317 196.86902,209.04482 C 196.47709,208.98101 196.09656,208.88075 195.72742,208.74403 L 195.72742,207.5204 C 196.09656,207.72092 196.46114,207.86903 196.82117,207.96474 C 197.18119,208.06044 197.54805,208.10829 197.92175,208.10829 C 198.74662,208.10829 199.36413,207.89182 199.77429,207.45888 C 200.18444,207.03049 200.38952,206.38108 200.38953,205.51064 L 200.38953,204.88857 C 200.12975,205.33974 199.79707,205.67698 199.39148,205.90028 C 198.98588,206.12359 198.50052,206.23524 197.93542,206.23524 C 196.99662,206.23524 196.24011,205.8775 195.66589,205.162 C 195.09167,204.44651 194.80456,203.49859 194.80457,202.31825 C 194.80456,201.13336 195.09167,200.18317 195.66589,199.46767 C 196.24011,198.75218 196.99662,198.39443 197.93542,198.39442 C 198.50052,198.39443 198.98588,198.50609 199.39148,198.72939 C 199.79707,198.9527 200.12975,199.28994 200.38953,199.7411 L 200.38953,198.57899 L 201.64734,198.57899 L 201.64734,205.28505 M 210.78699,202.09267 L 210.78699,202.7079 L 205.00378,202.7079 C 205.05847,203.57379 205.31823,204.2346 205.78308,204.69032 C 206.25248,205.1415 206.90417,205.36708 207.73816,205.36708 C 208.22123,205.36708 208.68835,205.30784 209.13953,205.18935 C 209.59525,205.07086 210.04642,204.89312 210.49304,204.65614 L 210.49304,205.8456 C 210.04186,206.037 209.5793,206.18284 209.10535,206.2831 C 208.63138,206.38336 208.15059,206.43349 207.66296,206.43349 C 206.44161,206.43349 205.47318,206.07802 204.75769,205.36708 C 204.04675,204.65614 203.69128,203.69456 203.69128,202.48232 C 203.69128,201.22906 204.02852,200.23558 204.703,199.50185 C 205.38204,198.76357 206.29577,198.39443 207.44421,198.39442 C 208.47416,198.39443 209.28763,198.72711 209.88464,199.39247 C 210.4862,200.05328 210.78698,200.95335 210.78699,202.09267 M 209.52917,201.72353 C 209.52005,201.03538 209.32637,200.48623 208.94812,200.07607 C 208.57442,199.66592 208.07767,199.46084 207.45789,199.46083 C 206.75606,199.46084 206.19323,199.65908 205.76941,200.05556 C 205.35014,200.45205 205.1086,201.01032 205.0448,201.73036 L 209.52917,201.72353 M 222.203,201.45009 C 222.49922,201.55035 222.78633,201.76455 223.06433,202.09267 C 223.34688,202.4208 223.62943,202.87197 223.91199,203.44618 L 225.31335,206.23524 L 223.82996,206.23524 L 222.52429,203.61708 C 222.18705,202.93349 221.85892,202.48004 221.53992,202.25673 C 221.22546,202.03343 220.79479,201.92177 220.24792,201.92177 L 218.74402,201.92177 L 218.74402,206.23524 L 217.36316,206.23524 L 217.36316,196.02919 L 220.48035,196.02919 C 221.64701,196.0292 222.51745,196.27302 223.09167,196.76064 C 223.66589,197.24827 223.95299,197.98428 223.953,198.96864 C 223.95299,199.61123 223.8026,200.14443 223.50183,200.56825 C 223.2056,200.99209 222.77266,201.28603 222.203,201.45009 M 218.74402,197.16396 L 218.74402,200.787 L 220.48035,200.787 C 221.14571,200.78701 221.64701,200.63434 221.98425,200.32899 C 222.32604,200.01911 222.49694,199.56566 222.49695,198.96864 C 222.49694,198.37165 222.32604,197.92275 221.98425,197.62196 C 221.64701,197.31663 221.14571,197.16396 220.48035,197.16396 L 218.74402,197.16396 M 232.96277,202.09267 L 232.96277,202.7079 L 227.17957,202.7079 C 227.23425,203.57379 227.49402,204.2346 227.95886,204.69032 C 228.42826,205.1415 229.07995,205.36708 229.91394,205.36708 C 230.39701,205.36708 230.86413,205.30784 231.31531,205.18935 C 231.77103,205.07086 232.2222,204.89312 232.66882,204.65614 L 232.66882,205.8456 C 232.21764,206.037 231.75508,206.18284 231.28113,206.2831 C 230.80716,206.38336 230.32637,206.43349 229.83875,206.43349 C 228.61739,206.43349 227.64896,206.07802 226.93347,205.36708 C 226.22253,204.65614 225.86706,203.69456 225.86707,202.48232 C 225.86706,201.22906 226.2043,200.23558 226.87878,199.50185 C 227.55782,198.76357 228.47155,198.39443 229.62,198.39442 C 230.64994,198.39443 231.46341,198.72711 232.06042,199.39247 C 232.66198,200.05328 232.96276,200.95335 232.96277,202.09267 M 231.70496,201.72353 C 231.69583,201.03538 231.50215,200.48623 231.1239,200.07607 C 230.7502,199.66592 230.25345,199.46084 229.63367,199.46083 C 228.93184,199.46084 228.36902,199.65908 227.94519,200.05556 C 227.52592,200.45205 227.28438,201.01032 227.22058,201.73036 L 231.70496,201.72353 M 236.27136,196.40517 L 236.27136,198.57899 L 238.86218,198.57899 L 238.86218,199.55653 L 236.27136,199.55653 L 236.27136,203.71278 C 236.27136,204.33713 236.35567,204.73818 236.52429,204.91591 C 236.69747,205.09364 237.0461,205.18251 237.57019,205.18251 L 238.86218,205.18251 L 238.86218,206.23524 L 237.57019,206.23524 C 236.59948,206.23524 235.92956,206.05523 235.56042,205.69521 C 235.19128,205.33062 235.00671,204.66982 235.00671,203.71278 L 235.00671,199.55653 L 234.08386,199.55653 L 234.08386,198.57899 L 235.00671,198.57899 L 235.00671,196.40517 L 236.27136,196.40517 M 240.39343,203.21376 L 240.39343,198.57899 L 241.65125,198.57899 L 241.65125,203.16591 C 241.65124,203.89052 241.79252,204.43512 242.07507,204.7997 C 242.35762,205.15972 242.78145,205.33974 243.34656,205.33974 C 244.02559,205.33974 244.56107,205.12327 244.953,204.69032 C 245.34948,204.25738 245.54772,203.66721 245.54773,202.91982 L 245.54773,198.57899 L 246.80554,198.57899 L 246.80554,206.23524 L 245.54773,206.23524 L 245.54773,205.05946 C 245.24238,205.52431 244.88692,205.87066 244.48132,206.09853 C 244.08028,206.32183 243.61315,206.43349 243.07996,206.43349 C 242.2004,206.43349 241.53275,206.16005 241.07703,205.61317 C 240.6213,205.0663 240.39343,204.2665 240.39343,203.21376 M 253.84656,199.75478 C 253.70528,199.67275 253.55033,199.61351 253.38171,199.57704 C 253.21765,199.53603 253.03535,199.51552 252.83484,199.51552 C 252.1239,199.51552 251.57702,199.74795 251.19421,200.21278 C 250.81596,200.67308 250.62683,201.33616 250.62683,202.20204 L 250.62683,206.23524 L 249.36218,206.23524 L 249.36218,198.57899 L 250.62683,198.57899 L 250.62683,199.76845 C 250.89115,199.30361 251.23523,198.95954 251.65906,198.73622 C 252.08288,198.50836 252.59786,198.39443 253.20398,198.39442 C 253.29056,198.39443 253.38627,198.40127 253.49109,198.41493 C 253.5959,198.42405 253.71211,198.44001 253.83972,198.46278 L 253.84656,199.75478 M 261.29773,201.61415 L 261.29773,206.23524 L 260.03992,206.23524 L 260.03992,201.65517 C 260.03991,200.93056 259.89863,200.38825 259.61609,200.02821 C 259.33353,199.66819 258.9097,199.48818 258.3446,199.48817 C 257.66556,199.48818 257.13008,199.70465 256.73816,200.13759 C 256.34623,200.57054 256.15027,201.16071 256.15027,201.9081 L 256.15027,206.23524 L 254.88562,206.23524 L 254.88562,198.57899 L 256.15027,198.57899 L 256.15027,199.76845 C 256.45105,199.30817 256.80424,198.96409 257.20984,198.73622 C 257.61999,198.50836 258.09167,198.39443 258.62488,198.39442 C 259.50443,198.39443 260.16979,198.66787 260.62097,199.21474 C 261.07214,199.75706 261.29772,200.55687 261.29773,201.61415"
       style="font-size:14px;font-style:normal;font-variant:normal;font-weight:normal;font-stretch:normal;text-align:start;line-height:100%;writing-mode:lr-tb;text-anchor:start;fill:#000000;fill-opacity:1;stroke:none;stroke-width:1px;stroke-linecap:butt;stroke-linejoin:miter;stroke-opacity:1;display:inline;font-family:Bitstream Vera Sans"
       id="text6216" />
    <path
       d="M 152.76434,212.28639 L 154.1452,212.28639 L 154.1452,221.33034 L 159.11493,221.33034 L 159.11493,222.49245 L 152.76434,222.49245 L 152.76434,212.28639 M 160.50262,214.8362 L 161.76044,214.8362 L 161.76044,222.49245 L 160.50262,222.49245 L 160.50262,214.8362 M 160.50262,211.85573 L 161.76044,211.85573 L 161.76044,213.4485 L 160.50262,213.4485 L 160.50262,211.85573 M 170.74969,217.87135 L 170.74969,222.49245 L 169.49188,222.49245 L 169.49188,217.91237 C 169.49188,217.18776 169.3506,216.64545 169.06805,216.28542 C 168.7855,215.9254 168.36167,215.74538 167.79657,215.74538 C 167.11753,215.74538 166.58205,215.96185 166.19012,216.39479 C 165.79819,216.82774 165.60223,217.41791 165.60223,218.1653 L 165.60223,222.49245 L 164.33759,222.49245 L 164.33759,214.8362 L 165.60223,214.8362 L 165.60223,216.02565 C 165.90301,215.56537 166.2562,215.2213 166.6618,214.99342 C 167.07196,214.76557 167.54364,214.65163 168.07684,214.65163 C 168.95639,214.65163 169.62176,214.92507 170.07294,215.47194 C 170.5241,216.01426 170.74969,216.81407 170.74969,217.87135 M 179.82098,218.34987 L 179.82098,218.9651 L 174.03778,218.9651 C 174.09247,219.83099 174.35223,220.4918 174.81708,220.94753 C 175.28648,221.3987 175.93817,221.62428 176.77216,221.62428 C 177.25522,221.62428 177.72235,221.56504 178.17352,221.44655 C 178.62925,221.32806 179.08042,221.15033 179.52704,220.91335 L 179.52704,222.1028 C 179.07586,222.2942 178.61329,222.44004 178.13934,222.5403 C 177.66538,222.64056 177.18459,222.69069 176.69696,222.69069 C 175.4756,222.69069 174.50718,222.33522 173.79169,221.62428 C 173.08075,220.91335 172.72528,219.95176 172.72528,218.73952 C 172.72528,217.48627 173.06252,216.49278 173.737,215.75905 C 174.41603,215.02077 175.32977,214.65163 176.47821,214.65163 C 177.50815,214.65163 178.32163,214.98432 178.91864,215.64967 C 179.5202,216.31049 179.82098,217.21055 179.82098,218.34987 M 178.56317,217.98073 C 178.55405,217.29258 178.36037,216.74343 177.98212,216.33327 C 177.60841,215.92312 177.11167,215.71804 176.49188,215.71803 C 175.79006,215.71804 175.22723,215.91628 174.80341,216.31276 C 174.38413,216.70925 174.1426,217.26752 174.0788,217.98756 L 178.56317,217.98073 M 186.39716,212.28639 L 192.26239,212.28639 L 192.26239,213.4485 L 187.77802,213.4485 L 187.77802,216.45631 L 191.82489,216.45631 L 191.82489,217.61842 L 187.77802,217.61842 L 187.77802,222.49245 L 186.39716,222.49245 L 186.39716,212.28639 M 200.19208,218.34987 L 200.19208,218.9651 L 194.40887,218.9651 C 194.46356,219.83099 194.72333,220.4918 195.18817,220.94753 C 195.65757,221.3987 196.30926,221.62428 197.14325,221.62428 C 197.62632,221.62428 198.09344,221.56504 198.54462,221.44655 C 199.00034,221.32806 199.45151,221.15033 199.89813,220.91335 L 199.89813,222.1028 C 199.44695,222.2942 198.98439,222.44004 198.51044,222.5403 C 198.03647,222.64056 197.55568,222.69069 197.06805,222.69069 C 195.8467,222.69069 194.87827,222.33522 194.16278,221.62428 C 193.45184,220.91335 193.09637,219.95176 193.09637,218.73952 C 193.09637,217.48627 193.43361,216.49278 194.10809,215.75905 C 194.78713,215.02077 195.70086,214.65163 196.8493,214.65163 C 197.87925,214.65163 198.69272,214.98432 199.28973,215.64967 C 199.89129,216.31049 200.19207,217.21055 200.19208,218.34987 M 198.93427,217.98073 C 198.92514,217.29258 198.73146,216.74343 198.35321,216.33327 C 197.97951,215.92312 197.48276,215.71804 196.86298,215.71803 C 196.16115,215.71804 195.59832,215.91628 195.1745,216.31276 C 194.75523,216.70925 194.51369,217.26752 194.44989,217.98756 L 198.93427,217.98073 M 208.80536,218.34987 L 208.80536,218.9651 L 203.02216,218.9651 C 203.07684,219.83099 203.33661,220.4918 203.80145,220.94753 C 204.27085,221.3987 204.92254,221.62428 205.75653,221.62428 C 206.2396,221.62428 206.70672,221.56504 207.1579,221.44655 C 207.61362,221.32806 208.06479,221.15033 208.51141,220.91335 L 208.51141,222.1028 C 208.06023,222.2942 207.59767,222.44004 207.12372,222.5403 C 206.64975,222.64056 206.16896,222.69069 205.68134,222.69069 C 204.45998,222.69069 203.49155,222.33522 202.77606,221.62428 C 202.06512,220.91335 201.70965,219.95176 201.70966,218.73952 C 201.70965,217.48627 202.04689,216.49278 202.72137,215.75905 C 203.40041,215.02077 204.31414,214.65163 205.46259,214.65163 C 206.49253,214.65163 207.306,214.98432 207.90302,215.64967 C 208.50457,216.31049 208.80535,217.21055 208.80536,218.34987 M 207.54755,217.98073 C 207.53843,217.29258 207.34474,216.74343 206.96649,216.33327 C 206.59279,215.92312 206.09604,215.71804 205.47626,215.71803 C 204.77443,215.71804 204.21161,215.91628 203.78778,216.31276 C 203.36851,216.70925 203.12697,217.26752 203.06317,217.98756 L 207.54755,217.98073 M 215.9079,215.99831 L 215.9079,211.85573 L 217.16571,211.85573 L 217.16571,222.49245 L 215.9079,222.49245 L 215.9079,221.34401 C 215.64357,221.79974 215.30861,222.13926 214.90302,222.36256 C 214.50197,222.58131 214.0189,222.69069 213.4538,222.69069 C 212.52866,222.69069 211.77443,222.32155 211.1911,221.58327 C 210.61232,220.84499 210.32294,219.87429 210.32294,218.67116 C 210.32294,217.46804 210.61232,216.49734 211.1911,215.75905 C 211.77443,215.02077 212.52866,214.65163 213.4538,214.65163 C 214.0189,214.65163 214.50197,214.76329 214.90302,214.98659 C 215.30861,215.20534 215.64357,215.54258 215.9079,215.99831 M 211.62177,218.67116 C 211.62176,219.59629 211.81089,220.32318 212.18915,220.85182 C 212.57196,221.37591 213.09605,221.63796 213.76141,221.63795 C 214.42677,221.63796 214.95086,221.37591 215.33368,220.85182 C 215.71649,220.32318 215.90789,219.59629 215.9079,218.67116 C 215.90789,217.74603 215.71649,217.02142 215.33368,216.49733 C 214.95086,215.96869 214.42677,215.70437 213.76141,215.70436 C 213.09605,215.70437 212.57196,215.96869 212.18915,216.49733 C 211.81089,217.02142 211.62176,217.74603 211.62177,218.67116"
       style="font-size:14px;font-style:normal;font-variant:normal;font-weight:normal;font-stretch:normal;text-align:start;line-height:100%;writing-mode:lr-tb;text-anchor:start;fill:#000000;fill-opacity:1;stroke:none;stroke-width:1px;stroke-linecap:butt;stroke-linejoin:miter;stroke-opacity:1;display:inline;font-family:Bitstream Vera Sans"
       id="text6220" />
    <path
       d="M 2.0912838,16.470895 L 2.0912838,242.47089 L 3.0912838,243.47089 L 5.0912838,244.47089 L 7.0912838,243.47089 L 8.0912838,241.47089 L 9.0912838,243.47089 L 9.0912838,244.47089 L 11.091284,245.47089 L 12.091284,243.47089 L 13.091284,245.47089 L 14.091284,249.47089 L 15.091284,251.47089 L 17.091284,248.47089 L 18.091284,245.47089 L 19.091284,244.47089 L 20.091284,245.47089 L 21.091284,247.47089 L 22.091284,250.47089 L 25.091284,251.47089 L 27.091284,250.47089 L 28.091284,247.47089 L 29.091284,250.47089 L 30.091284,252.47089 L 31.091284,251.47089 L 32.091284,252.47089 L 33.091284,250.47089 L 34.091284,252.47089 L 35.091284,250.47089 L 36.091284,246.47089 L 37.091284,247.47089 L 39.091284,250.47089 L 42.091284,253.47089 L 43.091284,250.47089 L 46.091284,246.47089 L 47.091284,244.47089 L 49.091284,248.47089 L 51.091284,245.47089 L 54.091284,240.47089 L 55.091284,244.47089 L 57.091284,247.47089 L 59.091284,246.47089 L 60.091284,245.47089 L 61.091284,247.47089 L 62.091284,244.47089 L 63.091284,248.47089 L 64.091284,246.47089 L 65.091284,245.47089 L 66.091284,243.47089 L 67.091284,244.47089 L 69.091284,242.47089 L 70.091284,243.47089 L 71.091284,242.47089 L 72.091284,245.47089 L 73.091284,247.47089 L 75.091284,249.47089 L 76.091284,251.47089 L 77.091284,250.47089 L 78.091284,251.47089 L 80.091284,248.47089 L 81.091284,246.47089 L 82.091284,247.47089 L 83.091284,246.47089 L 86.091284,245.47089 L 87.091284,246.47089 L 88.091284,245.47089 L 89.091284,248.47089 L 91.091284,246.47089 L 93.091284,242.47089 L 94.091284,243.47089 L 95.091284,242.47089 L 96.091284,245.47089 C 96.091284,245.47089 97.091284,246.47089 97.091284,246.47089 L 99.091284,244.47089 L 101.09128,246.47089 C 101.09128,246.47089 102.09128,247.47089 102.09128,247.47089 L 104.09128,244.47089 L 107.09128,241.47089 L 109.09128,239.47089 L 110.09128,237.47089 L 111.09128,242.47089 L 112.09128,251.47089 L 113.09128,254.47089 C 113.09128,254.47089 115.09128,252.47089 115.09128,252.47089 L 117.09128,251.47089 L 119.09128,248.47089 L 120.09128,247.47089 L 121.09128,246.47089 L 122.09128,248.47089 L 124.09128,251.47089 L 126.09128,249.47089 L 128.09128,247.47089 L 129.09128,245.47089 L 130.09128,244.47089 L 131.09128,249.47089 L 132.09128,248.47089 L 133.09128,246.47089 L 134.09128,249.47089 L 135.09128,248.47089 L 136.09128,251.47089 L 137.09128,252.47089 L 140.09128,249.47089 L 142.09128,246.47089 L 143.09128,247.47089 L 144.09128,246.47089 L 146.09128,249.47089 L 146.09128,17.470895 L 144.09128,14.470895 L 143.09128,11.470895 L 142.09128,8.4708946 L 141.09128,9.4708946 L 140.09128,10.470895 L 139.09128,8.4708946 L 138.09128,9.4708946 L 137.09128,8.4708946 L 136.09128,11.470895 L 135.09128,13.470895 C 135.09128,13.470895 134.09128,11.470895 134.09128,11.470895 L 133.09128,9.4708946 L 133.09128,8.4708946 L 131.09128,10.470895 L 130.09128,9.4708946 L 130.09128,8.4708946 L 129.09128,11.470895 L 128.09128,9.4708946 L 127.09128,10.470895 L 126.09128,5.4708946 L 125.09128,4.4708946 L 124.09128,5.4708946 L 122.09128,8.4708946 L 120.09128,13.470895 L 118.09128,19.470895 L 118.09128,22.470895 L 117.09128,18.470895 L 116.09128,12.470895 L 115.09128,9.4708946 L 114.09128,11.470895 L 111.09128,15.470895 L 110.09128,16.470895 L 109.09128,13.470895 L 107.09128,7.4708946 L 106.09128,6.4708946 L 104.09128,8.4708946 L 103.09128,7.4708946 L 102.09128,11.470895 L 101.09128,15.470895 L 100.09128,13.470895 L 99.091284,10.470895 L 98.091284,8.4708946 L 97.091284,9.4708946 L 96.091284,8.4708946 L 94.091284,9.4708946 L 93.091284,10.470895 L 92.091284,12.470895 L 90.091284,15.470895 L 89.091284,17.470895 L 88.091284,13.470895 L 86.091284,14.470895 L 85.091284,13.470895 L 84.091284,12.470895 L 83.091284,13.470895 L 82.091284,14.470895 L 81.091284,10.470895 L 80.091284,9.4708946 L 79.091284,10.470895 L 78.091284,14.470895 L 77.091284,19.470895 L 76.091284,13.470895 L 75.091284,18.470895 L 74.091284,24.470895 L 73.091284,26.470895 L 72.091284,28.470895 L 71.091284,27.470895 L 70.091284,28.470895 L 69.091284,25.470895 L 68.091284,20.470895 L 67.091284,5.4708946 C 67.091284,5.4708946 66.091284,7.4708946 66.091284,7.4708946 L 65.091284,4.4708946 L 64.091284,5.4708946 L 63.091284,7.4708946 L 61.091284,8.4708946 L 60.091284,12.470895 L 58.091284,15.470895 C 58.091284,15.470895 58.091284,17.470895 58.091284,17.470895 L 57.091284,13.470895 L 56.091284,15.470895 L 55.091284,11.470895 L 54.091284,12.470895 L 53.091284,4.4708946 L 52.091284,6.4708946 L 51.091284,8.4708946 L 50.091284,6.4708946 L 48.091284,9.4708946 L 47.091284,13.470895 L 46.091284,10.470895 L 45.091284,12.470895 L 44.091284,9.4708946 L 43.091284,13.470895 L 42.091284,11.470895 L 41.091284,13.470895 L 40.091284,8.4708946 L 39.091284,10.470895 L 38.091284,2.4708946 L 37.091284,1.4708946 L 35.091284,7.4708946 L 34.091284,15.470895 L 33.091284,6.4708946 L 32.091284,3.4708946 L 31.091284,4.4708946 L 28.091284,6.4708946 L 26.091284,8.4708946 L 24.091284,10.470895 L 23.091284,3.4708946 L 22.091284,1.4708946 L 21.091284,2.4708946 L 20.091284,3.4708946 L 19.091284,2.4708946 L 17.091284,7.4708946 L 16.091284,5.4708946 L 14.091284,10.470895 L 13.091284,9.4708946 L 12.091284,11.470895 L 11.091284,8.4708946 L 10.091284,10.470895 L 9.0912838,1.4708946 L 7.0912838,4.4708946 L 6.0912838,3.4708946 L 5.0912838,6.4708946 L 4.0912838,21.470895 L 2.0912838,16.470895 z "
       style="fill:#ffffff;fill-opacity:1;fill-rule:evenodd;stroke:none;stroke-width:0.5;stroke-linecap:round;stroke-linejoin:bevel;stroke-miterlimit:4;stroke-opacity:1;display:inline"
       id="path2222" />
    <path
       d="M 360.04312,418.3521 C 360.04312,420.0046 358.68794,421.34576 357.01817,421.34576 C 355.3484,421.34576 353.99322,420.0046 353.99322,418.3521 C 353.99322,416.69959 355.3484,415.35843 357.01817,415.35843 C 358.68794,415.35843 360.04312,416.69959 360.04312,418.3521 z "
       transform="matrix(0.9808225,0,0,0.9819332,-262.4487,-385.3178)"
       style="fill:none;fill-opacity:1;stroke:#c0c0c0;stroke-width:0.09985962;stroke-linecap:round;stroke-linejoin:bevel;stroke-miterlimit:4;stroke-dasharray:none;stroke-dashoffset:0;stroke-opacity:1;display:inline"
       id="path6238" />
    <path
       d="M 360.04312,418.3521 C 360.04312,420.0046 358.68794,421.34576 357.01817,421.34576 C 355.3484,421.34576 353.99322,420.0046 353.99322,418.3521 C 353.99322,416.69959 355.3484,415.35843 357.01817,415.35843 C 358.68794,415.35843 360.04312,416.69959 360.04312,418.3521 z "
       transform="matrix(0.9808225,0,0,0.9819332,-262.47921,-385.32781)"
       style="fill:#dddddd;fill-opacity:1;stroke:none;stroke-width:0.1;stroke-linecap:round;stroke-linejoin:bevel;stroke-miterlimit:4;stroke-dasharray:none;stroke-dashoffset:0;stroke-opacity:1"
       id="path6224" />
    <path
       d="M 360.04312,418.3521 C 360.04312,420.0046 358.68794,421.34576 357.01817,421.34576 C 355.3484,421.34576 353.99322,420.0046 353.99322,418.3521 C 353.99322,416.69959 355.3484,415.35843 357.01817,415.35843 C 358.68794,415.35843 360.04312,416.69959 360.04312,418.3521 z "
       transform="matrix(0.9808225,0,0,0.9819332,-262.4487,-369.3178)"
       style="fill:none;fill-opacity:1;stroke:#c0c0c0;stroke-width:0.09985962;stroke-linecap:round;stroke-linejoin:bevel;stroke-miterlimit:4;stroke-dasharray:none;stroke-dashoffset:0;stroke-opacity:1;display:inline"
       id="path6249" />
    <path
       d="M 360.04312,418.3521 C 360.04312,420.0046 358.68794,421.34576 357.01817,421.34576 C 355.3484,421.34576 353.99322,420.0046 353.99322,418.3521 C 353.99322,416.69959 355.3484,415.35843 357.01817,415.35843 C 358.68794,415.35843 360.04312,416.69959 360.04312,418.3521 z "
       transform="matrix(0.9808225,0,0,0.9819332,-262.47921,-369.32781)"
       style="fill:#dddddd;fill-opacity:1;stroke:none;stroke-width:0.1;stroke-linecap:round;stroke-linejoin:bevel;stroke-miterlimit:4;stroke-dasharray:none;stroke-dashoffset:0;stroke-opacity:1"
       id="path6251" />
    <path
       d="M 360.04312,418.3521 C 360.04312,420.0046 358.68794,421.34576 357.01817,421.34576 C 355.3484,421.34576 353.99322,420.0046 353.99322,418.3521 C 353.99322,416.69959 355.3484,415.35843 357.01817,415.35843 C 358.68794,415.35843 360.04312,416.69959 360.04312,418.3521 z "
       transform="matrix(0.9808225,0,0,0.9819332,-262.38921,-353.24036)"
       style="fill:none;fill-opacity:1;stroke:#c0c0c0;stroke-width:0.09985962;stroke-linecap:round;stroke-linejoin:bevel;stroke-miterlimit:4;stroke-dasharray:none;stroke-dashoffset:0;stroke-opacity:1;display:inline"
       id="path6255" />
    <path
       d="M 360.04312,418.3521 C 360.04312,420.0046 358.68794,421.34576 357.01817,421.34576 C 355.3484,421.34576 353.99322,420.0046 353.99322,418.3521 C 353.99322,416.69959 355.3484,415.35843 357.01817,415.35843 C 358.68794,415.35843 360.04312,416.69959 360.04312,418.3521 z "
       transform="matrix(0.9808225,0,0,0.9819332,-262.41972,-353.25037)"
       style="fill:#dddddd;fill-opacity:1;stroke:none;stroke-width:0.1;stroke-linecap:round;stroke-linejoin:bevel;stroke-miterlimit:4;stroke-dasharray:none;stroke-dashoffset:0;stroke-opacity:1"
       id="path6257" />
    <path
       d="M 360.04312,418.3521 C 360.04312,420.0046 358.68794,421.34576 357.01817,421.34576 C 355.3484,421.34576 353.99322,420.0046 353.99322,418.3521 C 353.99322,416.69959 355.3484,415.35843 357.01817,415.35843 C 358.68794,415.35843 360.04312,416.69959 360.04312,418.3521 z "
       transform="matrix(0.9808225,0,0,0.9819332,-262.4776,-337.33046)"
       style="fill:none;fill-opacity:1;stroke:#c0c0c0;stroke-width:0.09985962;stroke-linecap:round;stroke-linejoin:bevel;stroke-miterlimit:4;stroke-dasharray:none;stroke-dashoffset:0;stroke-opacity:1;display:inline"
       id="path6261" />
    <path
       d="M 360.04312,418.3521 C 360.04312,420.0046 358.68794,421.34576 357.01817,421.34576 C 355.3484,421.34576 353.99322,420.0046 353.99322,418.3521 C 353.99322,416.69959 355.3484,415.35843 357.01817,415.35843 C 358.68794,415.35843 360.04312,416.69959 360.04312,418.3521 z "
       transform="matrix(0.9808225,0,0,0.9819332,-262.50811,-337.34047)"
       style="fill:#dddddd;fill-opacity:1;stroke:none;stroke-width:0.1;stroke-linecap:round;stroke-linejoin:bevel;stroke-miterlimit:4;stroke-dasharray:none;stroke-dashoffset:0;stroke-opacity:1"
       id="path6263" />
    <path
       d="M 360.04312,418.3521 C 360.04312,420.0046 358.68794,421.34576 357.01817,421.34576 C 355.3484,421.34576 353.99322,420.0046 353.99322,418.3521 C 353.99322,416.69959 355.3484,415.35843 357.01817,415.35843 C 358.68794,415.35843 360.04312,416.69959 360.04312,418.3521 z "
       transform="matrix(0.9808225,0,0,0.9819332,-262.4776,-321.33217)"
       style="fill:none;fill-opacity:1;stroke:#c0c0c0;stroke-width:0.09985962;stroke-linecap:round;stroke-linejoin:bevel;stroke-miterlimit:4;stroke-dasharray:none;stroke-dashoffset:0;stroke-opacity:1;display:inline"
       id="path6267" />
    <path
       d="M 360.04312,418.3521 C 360.04312,420.0046 358.68794,421.34576 357.01817,421.34576 C 355.3484,421.34576 353.99322,420.0046 353.99322,418.3521 C 353.99322,416.69959 355.3484,415.35843 357.01817,415.35843 C 358.68794,415.35843 360.04312,416.69959 360.04312,418.3521 z "
       transform="matrix(0.9808225,0,0,0.9819332,-262.50811,-321.34218)"
       style="fill:#dddddd;fill-opacity:1;stroke:none;stroke-width:0.1;stroke-linecap:round;stroke-linejoin:bevel;stroke-miterlimit:4;stroke-dasharray:none;stroke-dashoffset:0;stroke-opacity:1"
       id="path6269" />
    <path
       d="M 360.04312,418.3521 C 360.04312,420.0046 358.68794,421.34576 357.01817,421.34576 C 355.3484,421.34576 353.99322,420.0046 353.99322,418.3521 C 353.99322,416.69959 355.3484,415.35843 357.01817,415.35843 C 358.68794,415.35843 360.04312,416.69959 360.04312,418.3521 z "
       transform="matrix(0.9808225,0,0,0.9819332,-262.4334,-305.33388)"
       style="fill:none;fill-opacity:1;stroke:#c0c0c0;stroke-width:0.09985962;stroke-linecap:round;stroke-linejoin:bevel;stroke-miterlimit:4;stroke-dasharray:none;stroke-dashoffset:0;stroke-opacity:1;display:inline"
       id="path6273" />
    <path
       d="M 360.04312,418.3521 C 360.04312,420.0046 358.68794,421.34576 357.01817,421.34576 C 355.3484,421.34576 353.99322,420.0046 353.99322,418.3521 C 353.99322,416.69959 355.3484,415.35843 357.01817,415.35843 C 358.68794,415.35843 360.04312,416.69959 360.04312,418.3521 z "
       transform="matrix(0.9808225,0,0,0.9819332,-262.46391,-305.34389)"
       style="fill:#dddddd;fill-opacity:1;stroke:none;stroke-width:0.1;stroke-linecap:round;stroke-linejoin:bevel;stroke-miterlimit:4;stroke-dasharray:none;stroke-dashoffset:0;stroke-opacity:1"
       id="path6275" />
    <path
       d="M 360.04312,418.3521 C 360.04312,420.0046 358.68794,421.34576 357.01817,421.34576 C 355.3484,421.34576 353.99322,420.0046 353.99322,418.3521 C 353.99322,416.69959 355.3484,415.35843 357.01817,415.35843 C 358.68794,415.35843 360.04312,416.69959 360.04312,418.3521 z "
       transform="matrix(0.9808225,0,0,0.9819332,-262.4334,-289.2472)"
       style="fill:none;fill-opacity:1;stroke:#c0c0c0;stroke-width:0.09985962;stroke-linecap:round;stroke-linejoin:bevel;stroke-miterlimit:4;stroke-dasharray:none;stroke-dashoffset:0;stroke-opacity:1;display:inline"
       id="path6279" />
    <path
       d="M 360.04312,418.3521 C 360.04312,420.0046 358.68794,421.34576 357.01817,421.34576 C 355.3484,421.34576 353.99322,420.0046 353.99322,418.3521 C 353.99322,416.69959 355.3484,415.35843 357.01817,415.35843 C 358.68794,415.35843 360.04312,416.69959 360.04312,418.3521 z "
       transform="matrix(0.9808225,0,0,0.9819332,-262.46391,-289.25721)"
       style="fill:#dddddd;fill-opacity:1;stroke:none;stroke-width:0.1;stroke-linecap:round;stroke-linejoin:bevel;stroke-miterlimit:4;stroke-dasharray:none;stroke-dashoffset:0;stroke-opacity:1"
       id="path6281" />
    <path
       d="M 360.04312,418.3521 C 360.04312,420.0046 358.68794,421.34576 357.01817,421.34576 C 355.3484,421.34576 353.99322,420.0046 353.99322,418.3521 C 353.99322,416.69959 355.3484,415.35843 357.01817,415.35843 C 358.68794,415.35843 360.04312,416.69959 360.04312,418.3521 z "
       transform="matrix(0.9808225,0,0,0.9819332,-262.4334,-273.3373)"
       style="fill:none;fill-opacity:1;stroke:#c0c0c0;stroke-width:0.09985962;stroke-linecap:round;stroke-linejoin:bevel;stroke-miterlimit:4;stroke-dasharray:none;stroke-dashoffset:0;stroke-opacity:1;display:inline"
       id="path6285" />
    <path
       d="M 360.04312,418.3521 C 360.04312,420.0046 358.68794,421.34576 357.01817,421.34576 C 355.3484,421.34576 353.99322,420.0046 353.99322,418.3521 C 353.99322,416.69959 355.3484,415.35843 357.01817,415.35843 C 358.68794,415.35843 360.04312,416.69959 360.04312,418.3521 z "
       transform="matrix(0.9808225,0,0,0.9819332,-262.46391,-273.34731)"
       style="fill:#dddddd;fill-opacity:1;stroke:none;stroke-width:0.1;stroke-linecap:round;stroke-linejoin:bevel;stroke-miterlimit:4;stroke-dasharray:none;stroke-dashoffset:0;stroke-opacity:1"
       id="path6287" />
    <path
       d="M 360.04312,418.3521 C 360.04312,420.0046 358.68794,421.34576 357.01817,421.34576 C 355.3484,421.34576 353.99322,420.0046 353.99322,418.3521 C 353.99322,416.69959 355.3484,415.35843 357.01817,415.35843 C 358.68794,415.35843 360.04312,416.69959 360.04312,418.3521 z "
       transform="matrix(0.9808225,0,0,0.9819332,-262.4776,-257.33901)"
       style="fill:none;fill-opacity:1;stroke:#c0c0c0;stroke-width:0.09985962;stroke-linecap:round;stroke-linejoin:bevel;stroke-miterlimit:4;stroke-dasharray:none;stroke-dashoffset:0;stroke-opacity:1;display:inline"
       id="path6291" />
    <path
       d="M 360.04312,418.3521 C 360.04312,420.0046 358.68794,421.34576 357.01817,421.34576 C 355.3484,421.34576 353.99322,420.0046 353.99322,418.3521 C 353.99322,416.69959 355.3484,415.35843 357.01817,415.35843 C 358.68794,415.35843 360.04312,416.69959 360.04312,418.3521 z "
       transform="matrix(0.9808225,0,0,0.9819332,-262.50811,-257.34902)"
       style="fill:#dddddd;fill-opacity:1;stroke:none;stroke-width:0.1;stroke-linecap:round;stroke-linejoin:bevel;stroke-miterlimit:4;stroke-dasharray:none;stroke-dashoffset:0;stroke-opacity:1"
       id="path6293" />
    <path
       d="M 360.04312,418.3521 C 360.04312,420.0046 358.68794,421.34576 357.01817,421.34576 C 355.3484,421.34576 353.99322,420.0046 353.99322,418.3521 C 353.99322,416.69959 355.3484,415.35843 357.01817,415.35843 C 358.68794,415.35843 360.04312,416.69959 360.04312,418.3521 z "
       transform="matrix(0.9808225,0,0,0.9819332,-262.52179,-241.29652)"
       style="fill:none;fill-opacity:1;stroke:#c0c0c0;stroke-width:0.09985962;stroke-linecap:round;stroke-linejoin:bevel;stroke-miterlimit:4;stroke-dasharray:none;stroke-dashoffset:0;stroke-opacity:1;display:inline"
       id="path6297" />
    <path
       d="M 360.04312,418.3521 C 360.04312,420.0046 358.68794,421.34576 357.01817,421.34576 C 355.3484,421.34576 353.99322,420.0046 353.99322,418.3521 C 353.99322,416.69959 355.3484,415.35843 357.01817,415.35843 C 358.68794,415.35843 360.04312,416.69959 360.04312,418.3521 z "
       transform="matrix(0.9808225,0,0,0.9819332,-262.5523,-241.30653)"
       style="fill:#dddddd;fill-opacity:1;stroke:none;stroke-width:0.1;stroke-linecap:round;stroke-linejoin:bevel;stroke-miterlimit:4;stroke-dasharray:none;stroke-dashoffset:0;stroke-opacity:1"
       id="path6299" />
    <path
       d="M 360.04312,418.3521 C 360.04312,420.0046 358.68794,421.34576 357.01817,421.34576 C 355.3484,421.34576 353.99322,420.0046 353.99322,418.3521 C 353.99322,416.69959 355.3484,415.35843 357.01817,415.35843 C 358.68794,415.35843 360.04312,416.69959 360.04312,418.3521 z "
       transform="matrix(0.9808225,0,0,0.9819332,-262.4776,-225.38662)"
       style="fill:none;fill-opacity:1;stroke:#c0c0c0;stroke-width:0.09985962;stroke-linecap:round;stroke-linejoin:bevel;stroke-miterlimit:4;stroke-dasharray:none;stroke-dashoffset:0;stroke-opacity:1;display:inline"
       id="path6303" />
    <path
       d="M 360.04312,418.3521 C 360.04312,420.0046 358.68794,421.34576 357.01817,421.34576 C 355.3484,421.34576 353.99322,420.0046 353.99322,418.3521 C 353.99322,416.69959 355.3484,415.35843 357.01817,415.35843 C 358.68794,415.35843 360.04312,416.69959 360.04312,418.3521 z "
       transform="matrix(0.9808225,0,0,0.9819332,-262.50811,-225.39663)"
       style="fill:#dddddd;fill-opacity:1;stroke:none;stroke-width:0.1;stroke-linecap:round;stroke-linejoin:bevel;stroke-miterlimit:4;stroke-dasharray:none;stroke-dashoffset:0;stroke-opacity:1"
       id="path6305" />
    <path
       d="M 360.04312,418.3521 C 360.04312,420.0046 358.68794,421.34576 357.01817,421.34576 C 355.3484,421.34576 353.99322,420.0046 353.99322,418.3521 C 353.99322,416.69959 355.3484,415.35843 357.01817,415.35843 C 358.68794,415.35843 360.04312,416.69959 360.04312,418.3521 z "
       transform="matrix(0.9808225,0,0,0.9819332,-262.52179,-209.38833)"
       style="fill:none;fill-opacity:1;stroke:#c0c0c0;stroke-width:0.09985962;stroke-linecap:round;stroke-linejoin:bevel;stroke-miterlimit:4;stroke-dasharray:none;stroke-dashoffset:0;stroke-opacity:1;display:inline"
       id="path6309" />
    <path
       d="M 360.04312,418.3521 C 360.04312,420.0046 358.68794,421.34576 357.01817,421.34576 C 355.3484,421.34576 353.99322,420.0046 353.99322,418.3521 C 353.99322,416.69959 355.3484,415.35843 357.01817,415.35843 C 358.68794,415.35843 360.04312,416.69959 360.04312,418.3521 z "
       transform="matrix(0.9808225,0,0,0.9819332,-262.5523,-209.39834)"
       style="fill:#dddddd;fill-opacity:1;stroke:none;stroke-width:0.1;stroke-linecap:round;stroke-linejoin:bevel;stroke-miterlimit:4;stroke-dasharray:none;stroke-dashoffset:0;stroke-opacity:1"
       id="path6311" />
    <path
       d="M 360.04312,418.3521 C 360.04312,420.0046 358.68794,421.34576 357.01817,421.34576 C 355.3484,421.34576 353.99322,420.0046 353.99322,418.3521 C 353.99322,416.69959 355.3484,415.35843 357.01817,415.35843 C 358.68794,415.35843 360.04312,416.69959 360.04312,418.3521 z "
       transform="matrix(0.9808225,0,0,0.9819332,-262.4334,-193.30165)"
       style="fill:none;fill-opacity:1;stroke:#c0c0c0;stroke-width:0.09985962;stroke-linecap:round;stroke-linejoin:bevel;stroke-miterlimit:4;stroke-dasharray:none;stroke-dashoffset:0;stroke-opacity:1;display:inline"
       id="path6315" />
    <path
       d="M 360.04312,418.3521 C 360.04312,420.0046 358.68794,421.34576 357.01817,421.34576 C 355.3484,421.34576 353.99322,420.0046 353.99322,418.3521 C 353.99322,416.69959 355.3484,415.35843 357.01817,415.35843 C 358.68794,415.35843 360.04312,416.69959 360.04312,418.3521 z "
       transform="matrix(0.9808225,0,0,0.9819332,-262.46391,-193.31166)"
       style="fill:#dddddd;fill-opacity:1;stroke:none;stroke-width:0.1;stroke-linecap:round;stroke-linejoin:bevel;stroke-miterlimit:4;stroke-dasharray:none;stroke-dashoffset:0;stroke-opacity:1"
       id="path6317" />
    <path
       d="M 360.04312,418.3521 C 360.04312,420.0046 358.68794,421.34576 357.01817,421.34576 C 355.3484,421.34576 353.99322,420.0046 353.99322,418.3521 C 353.99322,416.69959 355.3484,415.35843 357.01817,415.35843 C 358.68794,415.35843 360.04312,416.69959 360.04312,418.3521 z "
       transform="matrix(0.9808225,0,0,0.9819332,-262.4776,-177.30336)"
       style="fill:none;fill-opacity:1;stroke:#c0c0c0;stroke-width:0.09985962;stroke-linecap:round;stroke-linejoin:bevel;stroke-miterlimit:4;stroke-dasharray:none;stroke-dashoffset:0;stroke-opacity:1;display:inline"
       id="path6321" />
    <path
       d="M 360.04312,418.3521 C 360.04312,420.0046 358.68794,421.34576 357.01817,421.34576 C 355.3484,421.34576 353.99322,420.0046 353.99322,418.3521 C 353.99322,416.69959 355.3484,415.35843 357.01817,415.35843 C 358.68794,415.35843 360.04312,416.69959 360.04312,418.3521 z "
       transform="matrix(0.9808225,0,0,0.9819332,-262.50811,-177.31337)"
       style="fill:#dddddd;fill-opacity:1;stroke:none;stroke-width:0.1;stroke-linecap:round;stroke-linejoin:bevel;stroke-miterlimit:4;stroke-dasharray:none;stroke-dashoffset:0;stroke-opacity:1"
       id="path6323" />
    <path
       d="M 345.95198 610.46466 A 4.9939418 4.9939418 0 1 1  335.9641,610.46466 A 4.9939418 4.9939418 0 1 1  345.95198 610.46466 z"
       transform="translate(-269.17178,-393.07951)"
       style="fill:none;fill-opacity:1;stroke:#c0c0c0;stroke-width:0.198;stroke-linecap:round;stroke-linejoin:bevel;stroke-miterlimit:4;stroke-dasharray:none;stroke-dashoffset:0;stroke-opacity:1"
       id="path6325" />
    <path
       d="M 346.02934 610.24365 A 4.9663205 4.8061166 0 1 1  336.0967,610.24365 A 4.9663205 4.8061166 0 1 1  346.02934 610.24365 z"
       transform="matrix(1.0088988,0,0,1.0425287,-272.34702,-418.82616)"
       style="fill:#e6e6e6;fill-opacity:1;stroke:none;stroke-width:0.198;stroke-linecap:round;stroke-linejoin:bevel;stroke-miterlimit:4;stroke-dasharray:none;stroke-dashoffset:0;stroke-opacity:1"
       id="path6329" />
    <path
       d="M 345.95198 610.46466 A 4.9939418 4.9939418 0 1 1  335.9641,610.46466 A 4.9939418 4.9939418 0 1 1  345.95198 610.46466 z"
       transform="translate(-269.17178,-409.07951)"
       style="fill:none;fill-opacity:1;stroke:#c0c0c0;stroke-width:0.198;stroke-linecap:round;stroke-linejoin:bevel;stroke-miterlimit:4;stroke-dasharray:none;stroke-dashoffset:0;stroke-opacity:1"
       id="path6337" />
    <path
       d="M 346.02934 610.24365 A 4.9663205 4.8061166 0 1 1  336.0967,610.24365 A 4.9663205 4.8061166 0 1 1  346.02934 610.24365 z"
       transform="matrix(1.0088988,0,0,1.0425287,-272.34702,-434.82616)"
       style="fill:#e6e6e6;fill-opacity:1;stroke:none;stroke-width:0.198;stroke-linecap:round;stroke-linejoin:bevel;stroke-miterlimit:4;stroke-dasharray:none;stroke-dashoffset:0;stroke-opacity:1"
       id="path6339" />
    <path
       d="M 345.95198 610.46466 A 4.9939418 4.9939418 0 1 1  335.9641,610.46466 A 4.9939418 4.9939418 0 1 1  345.95198 610.46466 z"
       transform="translate(-269.17178,-441.07951)"
       style="fill:none;fill-opacity:1;stroke:#c0c0c0;stroke-width:0.198;stroke-linecap:round;stroke-linejoin:bevel;stroke-miterlimit:4;stroke-dasharray:none;stroke-dashoffset:0;stroke-opacity:1"
       id="path6343" />
    <path
       d="M 346.02934 610.24365 A 4.9663205 4.8061166 0 1 1  336.0967,610.24365 A 4.9663205 4.8061166 0 1 1  346.02934 610.24365 z"
       transform="matrix(1.0088988,0,0,1.0425287,-272.34702,-466.82616)"
       style="fill:#e6e6e6;fill-opacity:1;stroke:none;stroke-width:0.198;stroke-linecap:round;stroke-linejoin:bevel;stroke-miterlimit:4;stroke-dasharray:none;stroke-dashoffset:0;stroke-opacity:1"
       id="path6345" />
    <path
       d="M 345.95198 610.46466 A 4.9939418 4.9939418 0 1 1  335.9641,610.46466 A 4.9939418 4.9939418 0 1 1  345.95198 610.46466 z"
       transform="translate(-285.17178,-489.07951)"
       style="fill:none;fill-opacity:1;stroke:#c0c0c0;stroke-width:0.198;stroke-linecap:round;stroke-linejoin:bevel;stroke-miterlimit:4;stroke-dasharray:none;stroke-dashoffset:0;stroke-opacity:1"
       id="path6349" />
    <path
       d="M 346.02934 610.24365 A 4.9663205 4.8061166 0 1 1  336.0967,610.24365 A 4.9663205 4.8061166 0 1 1  346.02934 610.24365 z"
       transform="matrix(1.0088988,0,0,1.0425287,-288.34702,-514.82616)"
       style="fill:#e6e6e6;fill-opacity:1;stroke:none;stroke-width:0.198;stroke-linecap:round;stroke-linejoin:bevel;stroke-miterlimit:4;stroke-dasharray:none;stroke-dashoffset:0;stroke-opacity:1"
       id="path6351" />
    <path
       d="M 345.95198 610.46466 A 4.9939418 4.9939418 0 1 1  335.9641,610.46466 A 4.9939418 4.9939418 0 1 1  345.95198 610.46466 z"
       transform="translate(-269.17178,-505.07951)"
       style="fill:none;fill-opacity:1;stroke:#c0c0c0;stroke-width:0.198;stroke-linecap:round;stroke-linejoin:bevel;stroke-miterlimit:4;stroke-dasharray:none;stroke-dashoffset:0;stroke-opacity:1"
       id="path6355" />
    <path
       d="M 346.02934 610.24365 A 4.9663205 4.8061166 0 1 1  336.0967,610.24365 A 4.9663205 4.8061166 0 1 1  346.02934 610.24365 z"
       transform="matrix(1.0088988,0,0,1.0425287,-272.34702,-530.82616)"
       style="fill:#e6e6e6;fill-opacity:1;stroke:none;stroke-width:0.198;stroke-linecap:round;stroke-linejoin:bevel;stroke-miterlimit:4;stroke-dasharray:none;stroke-dashoffset:0;stroke-opacity:1"
       id="path6357" />
    <path
       d="M 345.95198 610.46466 A 4.9939418 4.9939418 0 1 1  335.9641,610.46466 A 4.9939418 4.9939418 0 1 1  345.95198 610.46466 z"
       transform="translate(-269.17178,-521.07951)"
       style="fill:none;fill-opacity:1;stroke:#c0c0c0;stroke-width:0.198;stroke-linecap:round;stroke-linejoin:bevel;stroke-miterlimit:4;stroke-dasharray:none;stroke-dashoffset:0;stroke-opacity:1"
       id="path6361" />
    <path
       d="M 346.02934 610.24365 A 4.9663205 4.8061166 0 1 1  336.0967,610.24365 A 4.9663205 4.8061166 0 1 1  346.02934 610.24365 z"
       transform="matrix(1.0088988,0,0,1.0425287,-272.34702,-546.82616)"
       style="fill:#e6e6e6;fill-opacity:1;stroke:none;stroke-width:0.198;stroke-linecap:round;stroke-linejoin:bevel;stroke-miterlimit:4;stroke-dasharray:none;stroke-dashoffset:0;stroke-opacity:1"
       id="path6363" />
    <path
       d="M 345.95198 610.46466 A 4.9939418 4.9939418 0 1 1  335.9641,610.46466 A 4.9939418 4.9939418 0 1 1  345.95198 610.46466 z"
       transform="translate(-269.17178,-537.07951)"
       style="fill:none;fill-opacity:1;stroke:#c0c0c0;stroke-width:0.198;stroke-linecap:round;stroke-linejoin:bevel;stroke-miterlimit:4;stroke-dasharray:none;stroke-dashoffset:0;stroke-opacity:1"
       id="path6367" />
    <path
       d="M 346.02934 610.24365 A 4.9663205 4.8061166 0 1 1  336.0967,610.24365 A 4.9663205 4.8061166 0 1 1  346.02934 610.24365 z"
       transform="matrix(1.0088988,0,0,1.0425287,-272.34702,-562.82616)"
       style="fill:#e6e6e6;fill-opacity:1;stroke:none;stroke-width:0.198;stroke-linecap:round;stroke-linejoin:bevel;stroke-miterlimit:4;stroke-dasharray:none;stroke-dashoffset:0;stroke-opacity:1"
       id="path6369" />
    <path
       d="M 345.95198 610.46466 A 4.9939418 4.9939418 0 1 1  335.9641,610.46466 A 4.9939418 4.9939418 0 1 1  345.95198 610.46466 z"
       transform="translate(-285.17178,-553.07951)"
       style="fill:none;fill-opacity:1;stroke:#c0c0c0;stroke-width:0.198;stroke-linecap:round;stroke-linejoin:bevel;stroke-miterlimit:4;stroke-dasharray:none;stroke-dashoffset:0;stroke-opacity:1"
       id="path6373" />
    <path
       d="M 346.02934 610.24365 A 4.9663205 4.8061166 0 1 1  336.0967,610.24365 A 4.9663205 4.8061166 0 1 1  346.02934 610.24365 z"
       transform="matrix(1.0088988,0,0,1.0425287,-288.34702,-578.82616)"
       style="fill:#e6e6e6;fill-opacity:1;stroke:none;stroke-width:0.198;stroke-linecap:round;stroke-linejoin:bevel;stroke-miterlimit:4;stroke-dasharray:none;stroke-dashoffset:0;stroke-opacity:1"
       id="path6375" />
    <path
       d="M 345.95198 610.46466 A 4.9939418 4.9939418 0 1 1  335.9641,610.46466 A 4.9939418 4.9939418 0 1 1  345.95198 610.46466 z"
       transform="translate(-317.17178,-553.07951)"
       style="fill:none;fill-opacity:1;stroke:#c0c0c0;stroke-width:0.198;stroke-linecap:round;stroke-linejoin:bevel;stroke-miterlimit:4;stroke-dasharray:none;stroke-dashoffset:0;stroke-opacity:1"
       id="path6379" />
    <path
       d="M 346.02934 610.24365 A 4.9663205 4.8061166 0 1 1  336.0967,610.24365 A 4.9663205 4.8061166 0 1 1  346.02934 610.24365 z"
       transform="matrix(1.0088988,0,0,1.0425287,-320.34702,-578.82616)"
       style="fill:#e6e6e6;fill-opacity:1;stroke:none;stroke-width:0.198;stroke-linecap:round;stroke-linejoin:bevel;stroke-miterlimit:4;stroke-dasharray:none;stroke-dashoffset:0;stroke-opacity:1"
       id="path6381" />
    <path
       d="M 345.95198 610.46466 A 4.9939418 4.9939418 0 1 1  335.9641,610.46466 A 4.9939418 4.9939418 0 1 1  345.95198 610.46466 z"
       transform="translate(-301.17178,-537.07951)"
       style="fill:none;fill-opacity:1;stroke:#c0c0c0;stroke-width:0.198;stroke-linecap:round;stroke-linejoin:bevel;stroke-miterlimit:4;stroke-dasharray:none;stroke-dashoffset:0;stroke-opacity:1"
       id="path6385" />
    <path
       d="M 346.02934 610.24365 A 4.9663205 4.8061166 0 1 1  336.0967,610.24365 A 4.9663205 4.8061166 0 1 1  346.02934 610.24365 z"
       transform="matrix(1.0088988,0,0,1.0425287,-304.34702,-562.82616)"
       style="fill:#e6e6e6;fill-opacity:1;stroke:none;stroke-width:0.198;stroke-linecap:round;stroke-linejoin:bevel;stroke-miterlimit:4;stroke-dasharray:none;stroke-dashoffset:0;stroke-opacity:1"
       id="path6387" />
    <path
       d="M 345.95198 610.46466 A 4.9939418 4.9939418 0 1 1  335.9641,610.46466 A 4.9939418 4.9939418 0 1 1  345.95198 610.46466 z"
       transform="translate(-317.17178,-537.07951)"
       style="fill:none;fill-opacity:1;stroke:#c0c0c0;stroke-width:0.198;stroke-linecap:round;stroke-linejoin:bevel;stroke-miterlimit:4;stroke-dasharray:none;stroke-dashoffset:0;stroke-opacity:1"
       id="path6391" />
    <path
       d="M 346.02934 610.24365 A 4.9663205 4.8061166 0 1 1  336.0967,610.24365 A 4.9663205 4.8061166 0 1 1  346.02934 610.24365 z"
       transform="matrix(1.0088988,0,0,1.0425287,-320.34702,-562.82616)"
       style="fill:#e6e6e6;fill-opacity:1;stroke:none;stroke-width:0.198;stroke-linecap:round;stroke-linejoin:bevel;stroke-miterlimit:4;stroke-dasharray:none;stroke-dashoffset:0;stroke-opacity:1"
       id="path6393" />
    <path
       d="M 345.95198 610.46466 A 4.9939418 4.9939418 0 1 1  335.9641,610.46466 A 4.9939418 4.9939418 0 1 1  345.95198 610.46466 z"
       transform="translate(-317.17178,-521.07951)"
       style="fill:none;fill-opacity:1;stroke:#c0c0c0;stroke-width:0.198;stroke-linecap:round;stroke-linejoin:bevel;stroke-miterlimit:4;stroke-dasharray:none;stroke-dashoffset:0;stroke-opacity:1"
       id="path6397" />
    <path
       d="M 346.02934 610.24365 A 4.9663205 4.8061166 0 1 1  336.0967,610.24365 A 4.9663205 4.8061166 0 1 1  346.02934 610.24365 z"
       transform="matrix(1.0088988,0,0,1.0425287,-320.34702,-546.82616)"
       style="fill:#e6e6e6;fill-opacity:1;stroke:none;stroke-width:0.198;stroke-linecap:round;stroke-linejoin:bevel;stroke-miterlimit:4;stroke-dasharray:none;stroke-dashoffset:0;stroke-opacity:1"
       id="path6399" />
    <path
       d="M 345.95198 610.46466 A 4.9939418 4.9939418 0 1 1  335.9641,610.46466 A 4.9939418 4.9939418 0 1 1  345.95198 610.46466 z"
       transform="translate(-301.17178,-521.07951)"
       style="fill:none;fill-opacity:1;stroke:#c0c0c0;stroke-width:0.198;stroke-linecap:round;stroke-linejoin:bevel;stroke-miterlimit:4;stroke-dasharray:none;stroke-dashoffset:0;stroke-opacity:1"
       id="path6403" />
    <path
       d="M 346.02934 610.24365 A 4.9663205 4.8061166 0 1 1  336.0967,610.24365 A 4.9663205 4.8061166 0 1 1  346.02934 610.24365 z"
       transform="matrix(1.0088988,0,0,1.0425287,-304.34702,-546.82616)"
       style="fill:#e6e6e6;fill-opacity:1;stroke:none;stroke-width:0.198;stroke-linecap:round;stroke-linejoin:bevel;stroke-miterlimit:4;stroke-dasharray:none;stroke-dashoffset:0;stroke-opacity:1"
       id="path6405" />
    <path
       d="M 345.95198 610.46466 A 4.9939418 4.9939418 0 1 1  335.9641,610.46466 A 4.9939418 4.9939418 0 1 1  345.95198 610.46466 z"
       transform="translate(-301.17178,-505.07951)"
       style="fill:none;fill-opacity:1;stroke:#c0c0c0;stroke-width:0.198;stroke-linecap:round;stroke-linejoin:bevel;stroke-miterlimit:4;stroke-dasharray:none;stroke-dashoffset:0;stroke-opacity:1"
       id="path6409" />
    <path
       d="M 346.02934 610.24365 A 4.9663205 4.8061166 0 1 1  336.0967,610.24365 A 4.9663205 4.8061166 0 1 1  346.02934 610.24365 z"
       transform="matrix(1.0088988,0,0,1.0425287,-304.34702,-530.82616)"
       style="fill:#e6e6e6;fill-opacity:1;stroke:none;stroke-width:0.198;stroke-linecap:round;stroke-linejoin:bevel;stroke-miterlimit:4;stroke-dasharray:none;stroke-dashoffset:0;stroke-opacity:1"
       id="path6411" />
    <path
       d="M 345.95198 610.46466 A 4.9939418 4.9939418 0 1 1  335.9641,610.46466 A 4.9939418 4.9939418 0 1 1  345.95198 610.46466 z"
       transform="translate(-317.17178,-505.07951)"
       style="fill:none;fill-opacity:1;stroke:#c0c0c0;stroke-width:0.198;stroke-linecap:round;stroke-linejoin:bevel;stroke-miterlimit:4;stroke-dasharray:none;stroke-dashoffset:0;stroke-opacity:1"
       id="path6415" />
    <path
       d="M 346.02934 610.24365 A 4.9663205 4.8061166 0 1 1  336.0967,610.24365 A 4.9663205 4.8061166 0 1 1  346.02934 610.24365 z"
       transform="matrix(1.0088988,0,0,1.0425287,-320.34702,-530.82616)"
       style="fill:#e6e6e6;fill-opacity:1;stroke:none;stroke-width:0.198;stroke-linecap:round;stroke-linejoin:bevel;stroke-miterlimit:4;stroke-dasharray:none;stroke-dashoffset:0;stroke-opacity:1"
       id="path6417" />
    <path
       d="M 345.95198 610.46466 A 4.9939418 4.9939418 0 1 1  335.9641,610.46466 A 4.9939418 4.9939418 0 1 1  345.95198 610.46466 z"
       transform="translate(-301.17178,-489.07951)"
       style="fill:none;fill-opacity:1;stroke:#c0c0c0;stroke-width:0.198;stroke-linecap:round;stroke-linejoin:bevel;stroke-miterlimit:4;stroke-dasharray:none;stroke-dashoffset:0;stroke-opacity:1"
       id="path6421" />
    <path
       d="M 346.02934 610.24365 A 4.9663205 4.8061166 0 1 1  336.0967,610.24365 A 4.9663205 4.8061166 0 1 1  346.02934 610.24365 z"
       transform="matrix(1.0088988,0,0,1.0425287,-304.34702,-514.82616)"
       style="fill:#e6e6e6;fill-opacity:1;stroke:none;stroke-width:0.198;stroke-linecap:round;stroke-linejoin:bevel;stroke-miterlimit:4;stroke-dasharray:none;stroke-dashoffset:0;stroke-opacity:1"
       id="path6423" />
    <path
       d="M 345.95198 610.46466 A 4.9939418 4.9939418 0 1 1  335.9641,610.46466 A 4.9939418 4.9939418 0 1 1  345.95198 610.46466 z"
       transform="translate(-317.17178,-489.07951)"
       style="fill:none;fill-opacity:1;stroke:#c0c0c0;stroke-width:0.198;stroke-linecap:round;stroke-linejoin:bevel;stroke-miterlimit:4;stroke-dasharray:none;stroke-dashoffset:0;stroke-opacity:1"
       id="path6427" />
    <path
       d="M 346.02934 610.24365 A 4.9663205 4.8061166 0 1 1  336.0967,610.24365 A 4.9663205 4.8061166 0 1 1  346.02934 610.24365 z"
       transform="matrix(1.0088988,0,0,1.0425287,-320.34702,-514.82616)"
       style="fill:#e6e6e6;fill-opacity:1;stroke:none;stroke-width:0.198;stroke-linecap:round;stroke-linejoin:bevel;stroke-miterlimit:4;stroke-dasharray:none;stroke-dashoffset:0;stroke-opacity:1"
       id="path6429" />
    <path
       d="M 345.95198 610.46466 A 4.9939418 4.9939418 0 1 1  335.9641,610.46466 A 4.9939418 4.9939418 0 1 1  345.95198 610.46466 z"
       transform="translate(-317.17178,-473.07951)"
       style="fill:none;fill-opacity:1;stroke:#c0c0c0;stroke-width:0.198;stroke-linecap:round;stroke-linejoin:bevel;stroke-miterlimit:4;stroke-dasharray:none;stroke-dashoffset:0;stroke-opacity:1"
       id="path6433" />
    <path
       d="M 346.02934 610.24365 A 4.9663205 4.8061166 0 1 1  336.0967,610.24365 A 4.9663205 4.8061166 0 1 1  346.02934 610.24365 z"
       transform="matrix(1.0088988,0,0,1.0425287,-320.34702,-498.82616)"
       style="fill:#e6e6e6;fill-opacity:1;stroke:none;stroke-width:0.198;stroke-linecap:round;stroke-linejoin:bevel;stroke-miterlimit:4;stroke-dasharray:none;stroke-dashoffset:0;stroke-opacity:1"
       id="path6435" />
    <path
       d="M 345.95198 610.46466 A 4.9939418 4.9939418 0 1 1  335.9641,610.46466 A 4.9939418 4.9939418 0 1 1  345.95198 610.46466 z"
       transform="translate(-301.17178,-473.07951)"
       style="fill:none;fill-opacity:1;stroke:#c0c0c0;stroke-width:0.198;stroke-linecap:round;stroke-linejoin:bevel;stroke-miterlimit:4;stroke-dasharray:none;stroke-dashoffset:0;stroke-opacity:1"
       id="path6439" />
    <path
       d="M 346.02934 610.24365 A 4.9663205 4.8061166 0 1 1  336.0967,610.24365 A 4.9663205 4.8061166 0 1 1  346.02934 610.24365 z"
       transform="matrix(1.0088988,0,0,1.0425287,-304.34702,-498.82616)"
       style="fill:#e6e6e6;fill-opacity:1;stroke:none;stroke-width:0.198;stroke-linecap:round;stroke-linejoin:bevel;stroke-miterlimit:4;stroke-dasharray:none;stroke-dashoffset:0;stroke-opacity:1"
       id="path6441" />
    <path
       d="M 345.95198 610.46466 A 4.9939418 4.9939418 0 1 1  335.9641,610.46466 A 4.9939418 4.9939418 0 1 1  345.95198 610.46466 z"
       transform="translate(-301.17178,-457.07951)"
       style="fill:none;fill-opacity:1;stroke:#c0c0c0;stroke-width:0.198;stroke-linecap:round;stroke-linejoin:bevel;stroke-miterlimit:4;stroke-dasharray:none;stroke-dashoffset:0;stroke-opacity:1"
       id="path6445" />
    <path
       d="M 346.02934 610.24365 A 4.9663205 4.8061166 0 1 1  336.0967,610.24365 A 4.9663205 4.8061166 0 1 1  346.02934 610.24365 z"
       transform="matrix(1.0088988,0,0,1.0425287,-304.34702,-482.82616)"
       style="fill:#e6e6e6;fill-opacity:1;stroke:none;stroke-width:0.198;stroke-linecap:round;stroke-linejoin:bevel;stroke-miterlimit:4;stroke-dasharray:none;stroke-dashoffset:0;stroke-opacity:1"
       id="path6447" />
    <path
       d="M 345.95198 610.46466 A 4.9939418 4.9939418 0 1 1  335.9641,610.46466 A 4.9939418 4.9939418 0 1 1  345.95198 610.46466 z"
       transform="translate(-317.17178,-457.07951)"
       style="fill:none;fill-opacity:1;stroke:#c0c0c0;stroke-width:0.198;stroke-linecap:round;stroke-linejoin:bevel;stroke-miterlimit:4;stroke-dasharray:none;stroke-dashoffset:0;stroke-opacity:1"
       id="path6451" />
    <path
       d="M 346.02934 610.24365 A 4.9663205 4.8061166 0 1 1  336.0967,610.24365 A 4.9663205 4.8061166 0 1 1  346.02934 610.24365 z"
       transform="matrix(1.0088988,0,0,1.0425287,-320.34702,-482.82616)"
       style="fill:#e6e6e6;fill-opacity:1;stroke:none;stroke-width:0.198;stroke-linecap:round;stroke-linejoin:bevel;stroke-miterlimit:4;stroke-dasharray:none;stroke-dashoffset:0;stroke-opacity:1"
       id="path6453" />
    <path
       d="M 345.95198 610.46466 A 4.9939418 4.9939418 0 1 1  335.9641,610.46466 A 4.9939418 4.9939418 0 1 1  345.95198 610.46466 z"
       transform="translate(-317.17178,-441.07951)"
       style="fill:none;fill-opacity:1;stroke:#c0c0c0;stroke-width:0.198;stroke-linecap:round;stroke-linejoin:bevel;stroke-miterlimit:4;stroke-dasharray:none;stroke-dashoffset:0;stroke-opacity:1"
       id="path6457" />
    <path
       d="M 346.02934 610.24365 A 4.9663205 4.8061166 0 1 1  336.0967,610.24365 A 4.9663205 4.8061166 0 1 1  346.02934 610.24365 z"
       transform="matrix(1.0088988,0,0,1.0425287,-320.34702,-466.82616)"
       style="fill:#e6e6e6;fill-opacity:1;stroke:none;stroke-width:0.198;stroke-linecap:round;stroke-linejoin:bevel;stroke-miterlimit:4;stroke-dasharray:none;stroke-dashoffset:0;stroke-opacity:1"
       id="path6459" />
    <path
       d="M 345.95198 610.46466 A 4.9939418 4.9939418 0 1 1  335.9641,610.46466 A 4.9939418 4.9939418 0 1 1  345.95198 610.46466 z"
       transform="translate(-301.17178,-441.07951)"
       style="fill:none;fill-opacity:1;stroke:#c0c0c0;stroke-width:0.198;stroke-linecap:round;stroke-linejoin:bevel;stroke-miterlimit:4;stroke-dasharray:none;stroke-dashoffset:0;stroke-opacity:1"
       id="path6463" />
    <path
       d="M 346.02934 610.24365 A 4.9663205 4.8061166 0 1 1  336.0967,610.24365 A 4.9663205 4.8061166 0 1 1  346.02934 610.24365 z"
       transform="matrix(1.0088988,0,0,1.0425287,-304.34702,-466.82616)"
       style="fill:#e6e6e6;fill-opacity:1;stroke:none;stroke-width:0.198;stroke-linecap:round;stroke-linejoin:bevel;stroke-miterlimit:4;stroke-dasharray:none;stroke-dashoffset:0;stroke-opacity:1"
       id="path6465" />
    <path
       d="M 345.95198 610.46466 A 4.9939418 4.9939418 0 1 1  335.9641,610.46466 A 4.9939418 4.9939418 0 1 1  345.95198 610.46466 z"
       transform="translate(-317.17178,-425.07951)"
       style="fill:none;fill-opacity:1;stroke:#c0c0c0;stroke-width:0.198;stroke-linecap:round;stroke-linejoin:bevel;stroke-miterlimit:4;stroke-dasharray:none;stroke-dashoffset:0;stroke-opacity:1"
       id="path6469" />
    <path
       d="M 346.02934 610.24365 A 4.9663205 4.8061166 0 1 1  336.0967,610.24365 A 4.9663205 4.8061166 0 1 1  346.02934 610.24365 z"
       transform="matrix(1.0088988,0,0,1.0425287,-320.34702,-450.82616)"
       style="fill:#e6e6e6;fill-opacity:1;stroke:none;stroke-width:0.198;stroke-linecap:round;stroke-linejoin:bevel;stroke-miterlimit:4;stroke-dasharray:none;stroke-dashoffset:0;stroke-opacity:1"
       id="path6471" />
    <path
       d="M 345.95198 610.46466 A 4.9939418 4.9939418 0 1 1  335.9641,610.46466 A 4.9939418 4.9939418 0 1 1  345.95198 610.46466 z"
       transform="translate(-301.17178,-425.07951)"
       style="fill:none;fill-opacity:1;stroke:#c0c0c0;stroke-width:0.198;stroke-linecap:round;stroke-linejoin:bevel;stroke-miterlimit:4;stroke-dasharray:none;stroke-dashoffset:0;stroke-opacity:1"
       id="path6475" />
    <path
       d="M 346.02934 610.24365 A 4.9663205 4.8061166 0 1 1  336.0967,610.24365 A 4.9663205 4.8061166 0 1 1  346.02934 610.24365 z"
       transform="matrix(1.0088988,0,0,1.0425287,-304.34702,-450.82616)"
       style="fill:#e6e6e6;fill-opacity:1;stroke:none;stroke-width:0.198;stroke-linecap:round;stroke-linejoin:bevel;stroke-miterlimit:4;stroke-dasharray:none;stroke-dashoffset:0;stroke-opacity:1"
       id="path6477" />
    <path
       d="M 345.95198 610.46466 A 4.9939418 4.9939418 0 1 1  335.9641,610.46466 A 4.9939418 4.9939418 0 1 1  345.95198 610.46466 z"
       transform="translate(-237.17178,-553.07951)"
       style="fill:none;fill-opacity:1;stroke:#c0c0c0;stroke-width:0.198;stroke-linecap:round;stroke-linejoin:bevel;stroke-miterlimit:4;stroke-dasharray:none;stroke-dashoffset:0;stroke-opacity:1"
       id="path6481" />
    <path
       d="M 346.02934 610.24365 A 4.9663205 4.8061166 0 1 1  336.0967,610.24365 A 4.9663205 4.8061166 0 1 1  346.02934 610.24365 z"
       transform="matrix(1.0088988,0,0,1.0425287,-240.34702,-578.82616)"
       style="fill:#e6e6e6;fill-opacity:1;stroke:none;stroke-width:0.198;stroke-linecap:round;stroke-linejoin:bevel;stroke-miterlimit:4;stroke-dasharray:none;stroke-dashoffset:0;stroke-opacity:1"
       id="path6483" />
    <path
       d="M 345.95198 610.46466 A 4.9939418 4.9939418 0 1 1  335.9641,610.46466 A 4.9939418 4.9939418 0 1 1  345.95198 610.46466 z"
       transform="translate(-221.17178,-553.07951)"
       style="fill:none;fill-opacity:1;stroke:#c0c0c0;stroke-width:0.198;stroke-linecap:round;stroke-linejoin:bevel;stroke-miterlimit:4;stroke-dasharray:none;stroke-dashoffset:0;stroke-opacity:1"
       id="path6487" />
    <path
       d="M 346.02934 610.24365 A 4.9663205 4.8061166 0 1 1  336.0967,610.24365 A 4.9663205 4.8061166 0 1 1  346.02934 610.24365 z"
       transform="matrix(1.0088988,0,0,1.0425287,-224.34702,-578.82616)"
       style="fill:#e6e6e6;fill-opacity:1;stroke:none;stroke-width:0.198;stroke-linecap:round;stroke-linejoin:bevel;stroke-miterlimit:4;stroke-dasharray:none;stroke-dashoffset:0;stroke-opacity:1"
       id="path6489" />
    <path
       d="M 345.95198 610.46466 A 4.9939418 4.9939418 0 1 1  335.9641,610.46466 A 4.9939418 4.9939418 0 1 1  345.95198 610.46466 z"
       transform="translate(-205.17178,-553.07951)"
       style="fill:none;fill-opacity:1;stroke:#c0c0c0;stroke-width:0.198;stroke-linecap:round;stroke-linejoin:bevel;stroke-miterlimit:4;stroke-dasharray:none;stroke-dashoffset:0;stroke-opacity:1"
       id="path6493" />
    <path
       d="M 346.02934 610.24365 A 4.9663205 4.8061166 0 1 1  336.0967,610.24365 A 4.9663205 4.8061166 0 1 1  346.02934 610.24365 z"
       transform="matrix(1.0088988,0,0,1.0425287,-208.34702,-578.82616)"
       style="fill:#e6e6e6;fill-opacity:1;stroke:none;stroke-width:0.198;stroke-linecap:round;stroke-linejoin:bevel;stroke-miterlimit:4;stroke-dasharray:none;stroke-dashoffset:0;stroke-opacity:1"
       id="path6495" />
    <path
       d="M 345.95198 610.46466 A 4.9939418 4.9939418 0 1 1  335.9641,610.46466 A 4.9939418 4.9939418 0 1 1  345.95198 610.46466 z"
       transform="translate(-205.17178,-537.07951)"
       style="fill:none;fill-opacity:1;stroke:#c0c0c0;stroke-width:0.198;stroke-linecap:round;stroke-linejoin:bevel;stroke-miterlimit:4;stroke-dasharray:none;stroke-dashoffset:0;stroke-opacity:1"
       id="path6499" />
    <path
       d="M 346.02934 610.24365 A 4.9663205 4.8061166 0 1 1  336.0967,610.24365 A 4.9663205 4.8061166 0 1 1  346.02934 610.24365 z"
       transform="matrix(1.0088988,0,0,1.0425287,-208.34702,-562.82616)"
       style="fill:#e6e6e6;fill-opacity:1;stroke:none;stroke-width:0.198;stroke-linecap:round;stroke-linejoin:bevel;stroke-miterlimit:4;stroke-dasharray:none;stroke-dashoffset:0;stroke-opacity:1"
       id="path6501" />
    <path
       d="M 345.95198 610.46466 A 4.9939418 4.9939418 0 1 1  335.9641,610.46466 A 4.9939418 4.9939418 0 1 1  345.95198 610.46466 z"
       transform="translate(-221.17178,-521.07951)"
       style="fill:none;fill-opacity:1;stroke:#c0c0c0;stroke-width:0.198;stroke-linecap:round;stroke-linejoin:bevel;stroke-miterlimit:4;stroke-dasharray:none;stroke-dashoffset:0;stroke-opacity:1"
       id="path6505" />
    <path
       d="M 346.02934 610.24365 A 4.9663205 4.8061166 0 1 1  336.0967,610.24365 A 4.9663205 4.8061166 0 1 1  346.02934 610.24365 z"
       transform="matrix(1.0088988,0,0,1.0425287,-224.34702,-546.82616)"
       style="fill:#e6e6e6;fill-opacity:1;stroke:none;stroke-width:0.198;stroke-linecap:round;stroke-linejoin:bevel;stroke-miterlimit:4;stroke-dasharray:none;stroke-dashoffset:0;stroke-opacity:1"
       id="path6507" />
    <path
       d="M 345.95198 610.46466 A 4.9939418 4.9939418 0 1 1  335.9641,610.46466 A 4.9939418 4.9939418 0 1 1  345.95198 610.46466 z"
       transform="translate(-205.17178,-521.07951)"
       style="fill:none;fill-opacity:1;stroke:#c0c0c0;stroke-width:0.198;stroke-linecap:round;stroke-linejoin:bevel;stroke-miterlimit:4;stroke-dasharray:none;stroke-dashoffset:0;stroke-opacity:1"
       id="path6511" />
    <path
       d="M 346.02934 610.24365 A 4.9663205 4.8061166 0 1 1  336.0967,610.24365 A 4.9663205 4.8061166 0 1 1  346.02934 610.24365 z"
       transform="matrix(1.0088988,0,0,1.0425287,-208.34702,-546.82616)"
       style="fill:#e6e6e6;fill-opacity:1;stroke:none;stroke-width:0.198;stroke-linecap:round;stroke-linejoin:bevel;stroke-miterlimit:4;stroke-dasharray:none;stroke-dashoffset:0;stroke-opacity:1"
       id="path6513" />
    <path
       d="M 345.95198 610.46466 A 4.9939418 4.9939418 0 1 1  335.9641,610.46466 A 4.9939418 4.9939418 0 1 1  345.95198 610.46466 z"
       transform="translate(-205.17178,-505.07951)"
       style="fill:none;fill-opacity:1;stroke:#c0c0c0;stroke-width:0.198;stroke-linecap:round;stroke-linejoin:bevel;stroke-miterlimit:4;stroke-dasharray:none;stroke-dashoffset:0;stroke-opacity:1"
       id="path6517" />
    <path
       d="M 346.02934 610.24365 A 4.9663205 4.8061166 0 1 1  336.0967,610.24365 A 4.9663205 4.8061166 0 1 1  346.02934 610.24365 z"
       transform="matrix(1.0088988,0,0,1.0425287,-208.34702,-530.82616)"
       style="fill:#e6e6e6;fill-opacity:1;stroke:none;stroke-width:0.198;stroke-linecap:round;stroke-linejoin:bevel;stroke-miterlimit:4;stroke-dasharray:none;stroke-dashoffset:0;stroke-opacity:1"
       id="path6519" />
    <path
       d="M 345.95198 610.46466 A 4.9939418 4.9939418 0 1 1  335.9641,610.46466 A 4.9939418 4.9939418 0 1 1  345.95198 610.46466 z"
       transform="translate(-237.17178,-473.07951)"
       style="fill:none;fill-opacity:1;stroke:#c0c0c0;stroke-width:0.198;stroke-linecap:round;stroke-linejoin:bevel;stroke-miterlimit:4;stroke-dasharray:none;stroke-dashoffset:0;stroke-opacity:1"
       id="path6523" />
    <path
       d="M 346.02934 610.24365 A 4.9663205 4.8061166 0 1 1  336.0967,610.24365 A 4.9663205 4.8061166 0 1 1  346.02934 610.24365 z"
       transform="matrix(1.0088988,0,0,1.0425287,-240.34702,-498.82616)"
       style="fill:#e6e6e6;fill-opacity:1;stroke:none;stroke-width:0.198;stroke-linecap:round;stroke-linejoin:bevel;stroke-miterlimit:4;stroke-dasharray:none;stroke-dashoffset:0;stroke-opacity:1"
       id="path6525" />
    <path
       d="M 345.95198 610.46466 A 4.9939418 4.9939418 0 1 1  335.9641,610.46466 A 4.9939418 4.9939418 0 1 1  345.95198 610.46466 z"
       transform="translate(-205.17178,-473.07951)"
       style="fill:none;fill-opacity:1;stroke:#c0c0c0;stroke-width:0.198;stroke-linecap:round;stroke-linejoin:bevel;stroke-miterlimit:4;stroke-dasharray:none;stroke-dashoffset:0;stroke-opacity:1"
       id="path6529" />
    <path
       d="M 346.02934 610.24365 A 4.9663205 4.8061166 0 1 1  336.0967,610.24365 A 4.9663205 4.8061166 0 1 1  346.02934 610.24365 z"
       transform="matrix(1.0088988,0,0,1.0425287,-208.34702,-498.82616)"
       style="fill:#e6e6e6;fill-opacity:1;stroke:none;stroke-width:0.198;stroke-linecap:round;stroke-linejoin:bevel;stroke-miterlimit:4;stroke-dasharray:none;stroke-dashoffset:0;stroke-opacity:1"
       id="path6531" />
    <path
       d="M 345.95198 610.46466 A 4.9939418 4.9939418 0 1 1  335.9641,610.46466 A 4.9939418 4.9939418 0 1 1  345.95198 610.46466 z"
       transform="translate(-237.17178,-457.07951)"
       style="fill:none;fill-opacity:1;stroke:#c0c0c0;stroke-width:0.198;stroke-linecap:round;stroke-linejoin:bevel;stroke-miterlimit:4;stroke-dasharray:none;stroke-dashoffset:0;stroke-opacity:1"
       id="path6535" />
    <path
       d="M 346.02934 610.24365 A 4.9663205 4.8061166 0 1 1  336.0967,610.24365 A 4.9663205 4.8061166 0 1 1  346.02934 610.24365 z"
       transform="matrix(1.0088988,0,0,1.0425287,-240.34702,-482.82616)"
       style="fill:#e6e6e6;fill-opacity:1;stroke:none;stroke-width:0.198;stroke-linecap:round;stroke-linejoin:bevel;stroke-miterlimit:4;stroke-dasharray:none;stroke-dashoffset:0;stroke-opacity:1"
       id="path6537" />
    <path
       d="M 345.95198 610.46466 A 4.9939418 4.9939418 0 1 1  335.9641,610.46466 A 4.9939418 4.9939418 0 1 1  345.95198 610.46466 z"
       transform="translate(-205.17178,-441.07951)"
       style="fill:none;fill-opacity:1;stroke:#c0c0c0;stroke-width:0.198;stroke-linecap:round;stroke-linejoin:bevel;stroke-miterlimit:4;stroke-dasharray:none;stroke-dashoffset:0;stroke-opacity:1"
       id="path6541" />
    <path
       d="M 346.02934 610.24365 A 4.9663205 4.8061166 0 1 1  336.0967,610.24365 A 4.9663205 4.8061166 0 1 1  346.02934 610.24365 z"
       transform="matrix(1.0088988,0,0,1.0425287,-208.34702,-466.82616)"
       style="fill:#e6e6e6;fill-opacity:1;stroke:none;stroke-width:0.198;stroke-linecap:round;stroke-linejoin:bevel;stroke-miterlimit:4;stroke-dasharray:none;stroke-dashoffset:0;stroke-opacity:1"
       id="path6543" />
    <path
       d="M 345.95198 610.46466 A 4.9939418 4.9939418 0 1 1  335.9641,610.46466 A 4.9939418 4.9939418 0 1 1  345.95198 610.46466 z"
       transform="translate(-205.17178,-425.07951)"
       style="fill:none;fill-opacity:1;stroke:#c0c0c0;stroke-width:0.198;stroke-linecap:round;stroke-linejoin:bevel;stroke-miterlimit:4;stroke-dasharray:none;stroke-dashoffset:0;stroke-opacity:1"
       id="path6547" />
    <path
       d="M 346.02934 610.24365 A 4.9663205 4.8061166 0 1 1  336.0967,610.24365 A 4.9663205 4.8061166 0 1 1  346.02934 610.24365 z"
       transform="matrix(1.0088988,0,0,1.0425287,-208.34702,-450.82616)"
       style="fill:#e6e6e6;fill-opacity:1;stroke:none;stroke-width:0.198;stroke-linecap:round;stroke-linejoin:bevel;stroke-miterlimit:4;stroke-dasharray:none;stroke-dashoffset:0;stroke-opacity:1"
       id="path6549" />
    <path
       d="M 345.95198 610.46466 A 4.9939418 4.9939418 0 1 1  335.9641,610.46466 A 4.9939418 4.9939418 0 1 1  345.95198 610.46466 z"
       transform="translate(-205.17178,-409.07951)"
       style="fill:none;fill-opacity:1;stroke:#c0c0c0;stroke-width:0.198;stroke-linecap:round;stroke-linejoin:bevel;stroke-miterlimit:4;stroke-dasharray:none;stroke-dashoffset:0;stroke-opacity:1"
       id="path6553" />
    <path
       d="M 346.02934 610.24365 A 4.9663205 4.8061166 0 1 1  336.0967,610.24365 A 4.9663205 4.8061166 0 1 1  346.02934 610.24365 z"
       transform="matrix(1.0088988,0,0,1.0425287,-208.34702,-434.82616)"
       style="fill:#e6e6e6;fill-opacity:1;stroke:none;stroke-width:0.198;stroke-linecap:round;stroke-linejoin:bevel;stroke-miterlimit:4;stroke-dasharray:none;stroke-dashoffset:0;stroke-opacity:1"
       id="path6555" />
    <path
       d="M 345.95198 610.46466 A 4.9939418 4.9939418 0 1 1  335.9641,610.46466 A 4.9939418 4.9939418 0 1 1  345.95198 610.46466 z"
       transform="translate(-221.17178,-393.07951)"
       style="fill:none;fill-opacity:1;stroke:#c0c0c0;stroke-width:0.198;stroke-linecap:round;stroke-linejoin:bevel;stroke-miterlimit:4;stroke-dasharray:none;stroke-dashoffset:0;stroke-opacity:1"
       id="path6559" />
    <path
       d="M 346.02934 610.24365 A 4.9663205 4.8061166 0 1 1  336.0967,610.24365 A 4.9663205 4.8061166 0 1 1  346.02934 610.24365 z"
       transform="matrix(1.0088988,0,0,1.0425287,-224.34702,-418.82616)"
       style="fill:#e6e6e6;fill-opacity:1;stroke:none;stroke-width:0.198;stroke-linecap:round;stroke-linejoin:bevel;stroke-miterlimit:4;stroke-dasharray:none;stroke-dashoffset:0;stroke-opacity:1"
       id="path6561" />
    <path
       d="M 345.95198 610.46466 A 4.9939418 4.9939418 0 1 1  335.9641,610.46466 A 4.9939418 4.9939418 0 1 1  345.95198 610.46466 z"
       transform="translate(-237.17178,-409.07951)"
       style="fill:none;fill-opacity:1;stroke:#c0c0c0;stroke-width:0.198;stroke-linecap:round;stroke-linejoin:bevel;stroke-miterlimit:4;stroke-dasharray:none;stroke-dashoffset:0;stroke-opacity:1"
       id="path6565" />
    <path
       d="M 346.02934 610.24365 A 4.9663205 4.8061166 0 1 1  336.0967,610.24365 A 4.9663205 4.8061166 0 1 1  346.02934 610.24365 z"
       transform="matrix(1.0088988,0,0,1.0425287,-240.34702,-434.82616)"
       style="fill:#e6e6e6;fill-opacity:1;stroke:none;stroke-width:0.198;stroke-linecap:round;stroke-linejoin:bevel;stroke-miterlimit:4;stroke-dasharray:none;stroke-dashoffset:0;stroke-opacity:1"
       id="path6567" />
  </g>
</svg>
