<?xml version="1.0" encoding="utf-8"?>
<svg id="svg2" width="337.47165" height="532.89667" version="1.0" viewBox="0 0 500 500" xmlns="http://www.w3.org/2000/svg">
  <rect x="0.398" width="499.203" height="500" style="visibility: hidden;"/>
  <path style="fill: rgb(255, 255, 255);" d="M 220.271 337.974 C 214.961 335.641 204.098 334.266 196.13 334.92 C 187.011 335.667 178.665 334.309 173.599 331.255 C 169.173 328.583 159.491 323.544 152.078 320.056 C 144.668 316.567 136.173 309.997 133.199 305.461 C 130.229 300.922 125.288 297.211 122.226 297.211 C 119.162 297.211 114.069 294.351 110.905 290.854 C 107.741 287.358 102.807 283.754 99.942 282.845 C 97.074 281.935 88.352 273.199 80.554 263.43 C 70.39 250.69 62.884 244.623 54.006 241.96 C 47.198 239.92 41.626 237.152 41.626 235.806 C 41.626 231.708 61.525 221.073 80.253 215.164 C 89.99 212.09 103.749 206.301 110.832 202.301 C 117.913 198.303 127.328 194.083 131.754 192.925 C 136.18 191.769 128.938 196.581 115.66 203.621 C 102.382 210.66 89.629 216.493 87.318 216.58 C 85.006 216.667 76.316 219.876 68.005 223.712 L 52.892 230.685 L 70.596 236.179 C 89.362 242.004 110.989 251.553 126.926 261.042 C 168.703 285.919 168.593 285.878 208.886 291.26 C 260.717 298.181 304.754 296.288 337.76 285.72 C 345.726 283.171 355.866 281.059 360.291 281.03 C 371.699 280.954 392.483 270.869 406.369 258.675 C 419.473 247.168 421.681 239.272 411.793 239.272 C 404.383 239.272 402.87 229.823 410.184 229.213 C 412.839 228.992 416.46 228.448 418.231 228.006 C 420 227.562 422.226 227.018 423.172 226.799 C 424.121 226.578 423.306 223.429 421.366 219.805 C 417.644 212.852 410.47 209.331 393.317 206.038 C 381.839 203.837 380.74 207.835 388.79 222.493 C 394.289 232.503 390.961 240.915 378.449 248.646 C 366.923 255.771 334.775 265.023 321.546 265.023 C 314.226 265.023 313.274 263.861 314.269 256.171 C 314.895 251.301 313.963 245.147 312.192 242.491 C 306.821 234.431 297.524 242.814 297.524 255.718 C 297.524 266.388 297.167 266.678 281.43 268.728 C 272.578 269.88 254.871 270.965 242.079 271.142 L 218.823 271.46 L 221.961 263.201 C 226.471 251.336 225.828 240.238 220.508 238.197 C 213.329 235.442 208.159 244.487 209.644 257.204 L 210.996 268.786 L 196.32 266.611 C 188.25 265.413 171.87 260.284 159.919 255.215 C 147.97 250.143 138.192 246.685 138.192 247.526 C 138.192 251.166 113.043 235.824 111.217 231.071 C 108.456 223.871 110.989 220.696 124.663 214.233 C 133.428 210.093 137.229 205.754 139.704 197.076 C 143.831 182.614 150.098 174.896 157.708 174.896 C 160.93 174.896 164.534 173.319 165.726 171.394 C 166.913 169.472 170.618 168.609 173.959 169.484 C 177.297 170.358 180.842 169.759 181.832 168.155 C 182.825 166.549 187.604 165.24 192.458 165.24 C 197.313 165.24 202.854 163.662 204.779 161.737 C 207.248 159.268 208.903 159.248 210.4 161.673 C 211.877 164.062 214.41 163.926 218.73 161.228 C 223.42 158.299 225.846 158.261 228.651 161.064 C 231.453 163.868 233.839 163.856 238.388 161.013 C 242.936 158.174 245.865 158.157 250.332 160.948 C 253.764 163.092 258.09 163.511 260.623 161.949 C 263.134 160.395 267.798 160.794 271.599 162.886 C 275.237 164.885 281.475 166.128 285.467 165.648 C 289.635 165.145 293.52 166.861 294.605 169.681 C 296.097 173.582 297.698 173.834 302.378 170.914 C 306.923 168.074 309.491 168.248 313.624 171.68 C 316.573 174.127 322.048 176.353 325.795 176.631 C 329.539 176.908 333.108 178.645 333.727 180.5 C 334.344 182.35 337.415 183.196 340.553 182.376 C 343.688 181.555 348.073 183.071 350.29 185.746 C 352.508 188.418 356.242 189.87 358.581 188.971 C 360.926 188.073 364.862 190.221 367.331 193.745 C 369.8 197.27 373.932 199.944 376.517 199.684 C 379.099 199.426 389.686 201.12 400.041 203.444 C 415.324 206.874 419.869 209.453 424.182 217.13 C 428.875 225.483 430.812 226.384 440.763 224.849 C 456.606 222.402 461.486 226.213 456.505 237.147 C 453.286 244.21 450.483 245.71 440.476 245.71 C 426.676 245.71 420.95 250.213 415.25 265.552 C 406.311 289.606 402.126 296.893 394.015 302.549 C 389.337 305.809 380.502 312.659 374.383 317.774 C 357.755 331.666 327.478 338.602 274.992 340.547 C 241.636 341.783 227.421 341.114 220.271 337.974 Z M 234.756 321.703 C 234.756 321.011 229.791 319.865 223.716 319.158 C 217.645 318.449 213.384 319.013 214.25 320.417 C 215.807 322.936 234.756 324.128 234.756 321.703 Z M 264.331 317.541 C 262.007 316.614 259.23 316.727 258.161 317.795 C 257.092 318.868 258.991 319.627 262.385 319.489 C 266.134 319.335 266.897 318.571 264.331 317.541 Z M 288.283 315.572 C 289.528 314.327 293.028 313.305 296.056 313.305 C 299.084 313.305 303.366 311.134 305.571 308.477 C 308.098 305.432 308.313 303.649 306.153 303.649 C 304.274 303.649 301.837 305.098 300.743 306.868 C 299.648 308.639 294.495 310.087 289.288 310.087 C 284.078 310.087 279.82 311.429 279.82 313.068 C 279.82 314.709 277.287 316.762 274.187 317.629 C 271.09 318.498 272.482 318.9 277.284 318.524 C 282.086 318.147 287.034 316.817 288.283 315.572 Z M 342.565 316.559 C 343.691 314.735 342.4 314.194 339.537 315.294 C 333.962 317.436 332.94 319.743 337.569 319.743 C 339.236 319.743 341.484 318.311 342.565 316.559 Z M 168.326 308.477 C 167.306 305.822 163.454 303.649 159.764 303.649 C 153.175 303.649 153.166 303.733 159.304 308.375 C 167.386 314.487 170.647 314.526 168.326 308.477 Z M 367.759 297.211 C 370.782 293.986 369.587 293.622 361.901 295.434 C 349.338 298.389 331.322 306.949 331.322 309.959 C 331.322 313.267 363.143 302.14 367.759 297.211 Z M 241.194 306.868 C 241.194 305.098 236.489 303.75 230.733 303.874 C 221.965 304.065 221.315 304.547 226.709 306.868 C 235.604 310.689 241.194 310.689 241.194 306.868 Z M 189.692 303.993 C 189.692 301.029 182.073 297.211 176.161 297.211 C 174.133 297.211 174.39 299.113 176.818 302.039 C 181.192 307.308 189.692 308.596 189.692 303.993 Z M 217.052 300.43 C 215.958 298.661 212.892 297.211 210.235 297.211 C 207.58 297.211 206.302 298.661 207.396 300.43 C 208.49 302.201 211.558 303.649 214.215 303.649 C 216.87 303.649 218.147 302.201 217.052 300.43 Z M 151.872 292.383 C 152.316 290.613 147.606 288.785 141.411 288.324 L 130.145 287.488 L 138.192 292.229 C 146.911 297.367 150.616 297.408 151.872 292.383 Z M 247.632 255.264 C 247.632 246.193 246.039 241.677 242.337 240.258 C 235.494 237.63 228.318 247.327 228.318 259.201 C 228.318 267.1 229.539 268.242 237.975 268.242 C 247.107 268.242 247.632 267.537 247.632 255.264 Z M 270.164 255.759 C 270.164 231.534 255.846 232.261 251.884 256.686 C 250.066 267.885 250.32 268.242 260.086 268.242 C 269.645 268.242 270.164 267.598 270.164 255.759 Z M 205.786 249.119 C 205.786 232.671 202.391 226.745 196.942 233.675 C 191.811 240.197 189.663 261.219 193.949 262.967 C 203.852 267.005 205.786 264.744 205.786 249.119 Z M 292.696 255.759 C 292.696 245.469 284.604 236.42 279.742 241.277 C 278.083 242.942 275.79 248.96 274.65 254.662 C 272.671 264.559 273.026 265.023 282.637 265.023 C 291.572 265.023 292.696 263.986 292.696 255.759 Z M 188.348 250.259 C 189.934 241.796 189.15 237.347 185.408 233.607 C 180.744 228.943 180.011 229.265 176.949 237.312 C 171.004 252.949 173.128 260.339 183.914 261.549 C 185.161 261.688 187.156 256.61 188.348 250.259 Z M 331.322 254.017 C 331.322 249.736 330.427 243.908 329.336 241.063 C 326.271 233.079 318.446 241.326 318.446 252.54 C 318.446 259.658 319.937 261.804 324.884 261.804 C 329.548 261.804 331.322 259.658 331.322 254.017 Z M 350.635 249.119 C 350.635 232.645 341.117 234.186 336.917 251.343 C 335.449 257.337 336.478 258.585 342.89 258.585 C 349.315 258.585 350.635 256.969 350.635 249.119 Z M 169.762 241.686 C 168.581 225.363 160.942 222.963 156.961 237.662 C 154.946 245.098 155.589 248.244 159.758 251.343 C 168.735 258.012 170.798 256.023 169.762 241.686 Z M 369.948 242.114 C 369.948 230.607 364.417 230.025 360.211 241.092 C 355.704 252.946 356.262 254.974 363.51 253.078 C 368.072 251.887 369.948 248.688 369.948 242.114 Z M 151.067 236.243 C 151.067 224.263 146.055 220.939 141.324 229.777 C 136.971 237.908 139.33 245.71 146.139 245.71 C 149.447 245.71 151.067 242.597 151.067 236.243 Z M 387.87 227.469 C 385.678 221.81 385.392 221.826 380.985 227.817 C 378.455 231.251 376.386 237.007 376.386 240.602 C 376.386 247.066 376.462 247.061 383.27 240.255 C 387.893 235.632 389.406 231.432 387.87 227.469 Z M 279.2 216.426 C 278.462 203.479 276.885 198.844 272.968 198.1 C 264.663 196.523 261.36 224.884 268.883 233.195 C 276.93 242.085 280.349 236.53 279.2 216.426 Z M 299.967 220.491 C 300.517 206.704 295.86 198.309 289.757 202.081 C 284.81 205.137 285.264 235.149 290.281 236.99 C 296.71 239.346 299.397 234.77 299.967 220.491 Z M 340.93 224.627 C 340.978 217.993 335.473 210.304 330.679 210.304 C 326.622 210.304 327.675 231.12 331.947 235.39 C 336.594 240.038 340.853 234.937 340.93 224.627 Z M 238.501 224.726 C 240.947 215.585 239.714 194.872 236.533 191.692 C 232.356 187.514 225.702 199.143 223.719 214.082 C 222.12 226.143 222.664 231.345 225.727 233.285 C 232.153 237.355 235.774 234.93 238.501 224.726 Z M 258.553 230.961 C 261.815 222.467 260.739 197.949 257.008 195.645 C 255.084 194.453 251.968 195.023 250.085 196.905 C 246.348 200.642 241.011 229.739 243.347 233.639 C 245.967 238.017 256.561 236.15 258.553 230.961 Z M 321.665 221.913 C 321.665 207.262 316.102 201.056 309.183 207.979 C 304.413 212.747 304.567 227.321 309.433 232.191 C 317.32 240.077 321.665 236.426 321.665 221.913 Z M 355.741 217.909 C 354.729 215.272 352.441 214.015 350.658 215.115 C 346.044 217.967 346.637 232.029 351.44 233.675 C 355.914 235.204 358.598 225.36 355.741 217.909 Z M 200.992 216.589 C 203.505 205.14 200.408 194.209 194.65 194.209 C 187.341 194.209 183.52 214.951 188.461 227.823 C 191.235 235.056 198.332 228.692 200.992 216.589 Z M 218.615 210.49 C 218.508 185.763 208.156 187.224 204.96 212.418 C 202.958 228.18 208.156 236.314 214.597 227.507 C 216.831 224.45 218.641 216.792 218.615 210.49 Z M 446.333 230.604 C 443.201 229.786 438.856 229.841 436.677 230.723 C 434.499 231.606 437.061 232.272 442.372 232.208 C 447.682 232.139 449.465 231.418 446.333 230.604 Z M 378.51 212.09 C 375.578 204.451 370.891 206.109 368.499 215.63 C 367.106 221.189 367.827 225.096 370.565 226.812 C 375.68 230.018 381.356 219.503 378.51 212.09 Z M 147.849 212.478 C 147.849 203.887 140.551 207.624 137.889 217.578 C 135.825 225.284 136.173 225.701 141.735 222.225 C 145.099 220.126 147.849 215.74 147.849 212.478 Z M 165.645 216.441 C 167.973 209.115 164.763 197.428 160.427 197.428 C 155.951 197.428 150.587 213.373 152.761 220.221 C 155.016 227.334 162.925 225.016 165.645 216.441 Z M 179.392 222.534 C 183.89 218.038 184.414 204.239 180.333 197.794 C 176.46 191.682 170.381 203.128 170.381 216.528 C 170.381 227.012 173.1 228.824 179.392 222.534 Z M 366.729 205.475 C 366.729 195.721 361.617 192.409 357.614 199.562 C 355.602 203.16 355.753 206.993 358.06 210.689 C 362.547 217.874 366.729 215.356 366.729 205.475 Z M 348.987 203.985 C 350.812 198.228 346.174 184.553 342.394 184.553 C 341.529 184.553 339.375 188.348 337.612 192.989 C 335.362 198.905 335.502 202.755 338.084 205.864 C 343.184 212.006 346.631 211.413 348.987 203.985 Z M 332.255 200.647 C 334.65 191.489 331.371 181.334 326.016 181.334 C 320.001 181.334 317.268 189.075 319.769 199.044 C 322.186 208.674 329.895 209.665 332.255 200.647 Z M 160.724 185.859 C 160.724 179.068 155.161 177.696 149.719 183.143 C 144.52 188.34 142.968 197.91 146.715 201.661 C 149.342 204.284 160.724 191.44 160.724 185.859 Z M 313.921 192.542 C 314.941 188.476 314.101 182.026 312.057 178.205 C 304.87 164.769 295.011 182.936 301.009 198.57 C 303.591 205.3 311.664 201.531 313.921 192.542 Z M 293.778 190.42 C 296.044 181.752 290.49 167.582 285.482 169.253 C 279.186 171.351 275.015 190.027 279.608 195.561 C 284.539 201.505 291.543 198.963 293.778 190.42 Z M 176.672 186.635 C 180.107 177.58 174.602 170.054 168.343 175.25 C 163.816 179.007 162.343 191.538 165.999 195.194 C 169.035 198.228 173.692 194.496 176.672 186.635 Z M 192.8 187.98 C 197.727 178.775 196.893 168.459 191.222 168.459 C 188.525 168.459 184.843 172.327 183.043 177.059 C 177.448 191.778 185.775 201.103 192.8 187.98 Z M 209.005 177.528 C 209.005 166.73 208.226 165.098 204.535 168.161 C 198.706 172.997 196.188 186.539 200.344 190.693 C 205.8 196.15 209.005 191.28 209.005 177.528 Z M 228.39 179.724 C 229.343 164.679 228.654 162.021 223.806 162.021 C 221.324 162.021 217.694 166.604 215.74 172.208 C 212.805 180.631 213.126 183.433 217.604 188.377 C 224.095 195.554 227.562 192.774 228.39 179.724 Z M 250.85 178.115 C 250.85 171.238 249.264 164.638 247.324 163.437 C 242.701 160.582 235.7 167.943 233.157 178.336 C 231.54 184.929 232.639 187.295 238.577 190.007 C 248.769 194.662 250.85 192.647 250.85 178.115 Z M 272.774 180.252 C 273.509 171.548 272.355 167.86 268.426 166.352 C 258.792 162.655 252.931 182.125 261.193 190.385 C 267.469 196.665 271.7 192.966 272.774 180.252 Z" id="path2311"/>
</svg>