<?xml version="1.0" encoding="utf-8"?>
<svg width="597" height="600" xmlns="http://www.w3.org/2000/svg">
  <title>bake</title>
  <g>
    <title>Layer 1</title>
    <polyline fill="none" stroke-width="2" stroke-dasharray="null" stroke-linejoin="null" stroke-linecap="round" points="161,93 161,93 " id="svg_3" style="stroke: rgb(255, 255, 255); visibility: hidden;"/>
    <ellipse fill="none" stroke-width="2" stroke-dasharray="null" stroke-linejoin="null" stroke-linecap="null" cx="160" cy="94" id="svg_5" style="stroke: rgb(255, 255, 255); visibility: hidden;"/>
    <ellipse fill="none" stroke-width="2" stroke-dasharray="null" stroke-linejoin="null" stroke-linecap="null" cx="160" cy="93" id="svg_6" style="stroke: rgb(255, 255, 255); visibility: hidden;"/>
    <ellipse fill="none" stroke-width="2" stroke-dasharray="null" stroke-linejoin="null" stroke-linecap="null" cx="162" cy="49" id="svg_10" style="stroke: rgb(255, 255, 255); visibility: hidden;"/>
    <ellipse fill="none" stroke-width="2" stroke-dasharray="null" stroke-linejoin="null" stroke-linecap="null" cx="172" cy="53" id="svg_11" style="stroke: rgb(255, 255, 255); visibility: hidden;"/>
    <ellipse fill="none" stroke-width="2" stroke-dasharray="null" stroke-linejoin="null" stroke-linecap="null" cx="170" cy="52" id="svg_12" style="stroke: rgb(255, 255, 255); visibility: hidden;"/>
    <ellipse fill="none" stroke-width="2" stroke-dasharray="null" stroke-linejoin="null" stroke-linecap="null" cx="170" cy="49" id="svg_13" style="stroke: rgb(255, 255, 255); visibility: hidden;"/>
    <g id="svg_16" transform="rotate(-17.5183, 242.51, 185.842)" style="">
      <path stroke-width="2" stroke-dasharray="null" stroke-linejoin="null" stroke-linecap="null" d="m232.717407,355.089081c0,-6.910858 -1.630432,-214.23761 -1.630432,-214.23761c0,0 -22.826111,-5.183151 -22.826111,-1.727722c0,3.45546 0,-74.292068 -1.630432,-89.841579c-1.630432,-15.5495 29.347839,-36.282169 29.347839,-36.282169c0,0 39.130432,0 39.130432,0c0,0 1.630432,119.21286 3.260864,124.396057c1.630432,5.183151 -21.195648,1.727692 -21.195648,1.727692c0,0 -1.630432,217.693054 -1.630432,217.693054c0,0 -22.82608,5.183197 -22.82608,-1.727722z" id="svg_14" style="stroke: rgb(255, 255, 255);" fill="rgb(0,0,0,0)"/>
      <path stroke-width="2" stroke-dasharray="null" stroke-linejoin="null" stroke-linecap="null" d="m231.086975,139.123749c0,0 26.086945,-1.411224 26.086945,-1.411224c0,0 0,-46.570221 0,-66.327278c0,-19.757057 -27.717377,-25.401936 -27.717377,0c0,25.401955 1.630432,67.738503 1.630432,67.738503z" id="svg_15" style="stroke: rgb(255, 255, 255); fill: rgba(127, 63, 0, 0);"/>
    </g>
    <g id="svg_17" transform="rotate(16.4933, 372.863, 189.08)">
      <path stroke-width="2" stroke-dasharray="null" stroke-linejoin="null" stroke-linecap="null" d="m361.385376,124.019997c0,0 -17.656128,-16.672493 -27.645752,-47.452499c-9.989624,-30.779999 6.272552,-55.147497 36.938416,-56.857498c30.665863,-1.709999 48.32196,16.245003 43.443298,43.177502c-4.878662,26.932499 -13.706696,42.322498 -26.716461,59.422497c-13.009735,17.100006 0,227.429993 -1.858521,232.559998c-1.858551,5.130005 -22.30246,3.419983 -22.30246,3.419983c0,0 -1.858521,-234.269981 -1.858521,-234.269981z" id="svg_7" style="stroke: rgb(255, 255, 255);" fill="rgb(0,0,0,0)"/>
      <path stroke-width="2" stroke-dasharray="null" stroke-linejoin="null" stroke-linecap="null" d="m340.954285,62.96537c-3.466309,-16.885509 13.149567,-36.6008 32.976135,-36.41293c19.826691,0.187849 36.036316,13.367489 32.06842,37.092999c-3.967834,23.725502 -15.008026,48.570793 -32.976135,48.382935c-17.96814,-0.187874 -28.602142,-32.17749 -32.06842,-49.063004z" id="svg_8" style="stroke: rgb(255, 255, 255);" fill="rgb(0,0,0,0)"/>
    </g>
    <ellipse fill="none" stroke-width="2" stroke-dasharray="null" stroke-linejoin="null" stroke-linecap="null" cx="561" cy="358" id="svg_21" style="stroke: rgb(255, 255, 255); visibility: hidden;"/>
    <ellipse fill="none" stroke-width="2" stroke-dasharray="null" stroke-linejoin="null" stroke-linecap="null" cx="537" cy="143" id="svg_22" style="stroke: rgb(255, 255, 255); visibility: hidden;"/>
    <ellipse fill="none" stroke-width="2" stroke-dasharray="null" stroke-linejoin="null" stroke-linecap="null" cx="326" cy="59" id="svg_26" style="stroke: rgb(255, 255, 255); visibility: hidden;"/>
    <ellipse fill="none" stroke-width="2" stroke-dasharray="null" stroke-linejoin="null" stroke-linecap="null" cx="371" cy="42" id="svg_28" style="stroke: rgb(255, 255, 255); visibility: hidden;"/>
    <ellipse fill="none" stroke-width="2" stroke-dasharray="null" stroke-linejoin="null" stroke-linecap="null" cx="517" cy="154" id="svg_33" style="stroke: rgb(255, 255, 255); visibility: hidden;"/>
    <ellipse fill="none" stroke-width="2" stroke-dasharray="null" stroke-linejoin="null" stroke-linecap="null" cx="515" cy="205" id="svg_35" style="stroke: rgb(255, 255, 255); visibility: hidden;"/>
    <ellipse fill="none" stroke-width="2" stroke-dasharray="null" stroke-linejoin="null" stroke-linecap="null" cx="515" cy="205" id="svg_36" style="stroke: rgb(255, 255, 255); visibility: hidden;"/>
    <ellipse fill="none" stroke-width="2" stroke-dasharray="null" stroke-linejoin="null" stroke-linecap="null" cx="519" cy="222" id="svg_37" style="stroke: rgb(255, 255, 255); visibility: hidden;"/>
    <ellipse fill="none" stroke-width="2" stroke-dasharray="null" stroke-linejoin="null" stroke-linecap="null" cx="520" cy="222" id="svg_38" style="stroke: rgb(255, 255, 255); visibility: hidden;"/>
    <ellipse fill="none" stroke-width="2" stroke-dasharray="null" stroke-linejoin="null" stroke-linecap="null" cx="520" cy="222" id="svg_39" style="stroke: rgb(255, 255, 255); visibility: hidden;"/>
    <ellipse fill="none" stroke-width="2" stroke-dasharray="null" stroke-linejoin="null" stroke-linecap="null" cx="314" cy="42" id="svg_40" style="stroke: rgb(255, 255, 255); visibility: hidden;"/>
    <g id="svg_48">
      <ellipse stroke-width="2" stroke-dasharray="null" stroke-linejoin="null" stroke-linecap="null" cx="308.95969" cy="347.742712" id="svg_19" rx="13.703597" ry="7.757298" style="stroke: rgb(255, 255, 255);" fill="rgb(0,0,0,0)"/>
      <ellipse stroke-width="2" stroke-dasharray="null" stroke-linejoin="null" stroke-linecap="null" cx="308.153596" cy="347.742712" id="svg_20" rx="6.448751" ry="4.177007" style="stroke: rgb(255, 255, 255);" fill="rgb(0,0,0,0)"/>
      <g id="svg_47">
        <ellipse stroke-width="2" stroke-dasharray="null" stroke-linejoin="null" stroke-linecap="null" cx="324.377409" cy="151.467869" id="svg_25" rx="5.868066" ry="65.214553" transform="matrix(1.60091 0.140909 -0.190352 1.18508 -166.886 -120.953)" style="stroke: rgb(255, 255, 255);" fill="rgb(0,0,0,0)"/>
        <path stroke-width="2" stroke-dasharray="null" stroke-linejoin="null" stroke-linecap="null" d="m325.739319,339.756897c0,0 -31.800934,2.21756 -31.800934,2.21756c0,0 -0.904022,-155.230591 -2.446228,-155.230591c-1.542175,0 35.470276,-1.10878 35.470276,-1.10878c0,0 -1.223114,154.121811 -1.223114,154.121811z" id="svg_18" style="stroke: rgb(255, 255, 255);" fill="rgb(0,0,0,0)"/>
        <path stroke-width="2" stroke-dasharray="null" stroke-linejoin="null" stroke-linecap="null" d="m296.822998,186.427002c9.54599,1.162003 26.087006,-1.184998 27.911987,0c1.825012,1.184998 11.116028,-62.470001 11.116028,-62.470001c0,0 22.297974,-56.0905 24.983978,-64.8423c2.688019,-8.7519 15.824005,-50.48884 -53.238007,-52.89145c-69.060989,-2.40273 -67.166992,43.31225 -63.941986,52.859651c3.223999,9.547501 21.691986,38.3563 34.119995,66.074097c12.429993,27.719009 9.503998,60.109009 19.048004,61.270004l0,0l0,0z" id="svg_29" style="stroke: rgb(255, 255, 255);" fill="rgb(0,0,0,0)"/>
        <ellipse stroke-width="2" stroke-dasharray="null" stroke-linejoin="null" stroke-linecap="null" cx="297.889028" cy="120.644412" id="svg_31" rx="4.267081" ry="66.677544" transform="matrix(1.60768 -0.0892245 0.120532 1.19009 -199.357 -22.8263)" style="stroke: rgb(255, 255, 255);" fill="rgb(0,0,0,0)"/>
        <ellipse stroke-width="2" stroke-dasharray="null" stroke-linejoin="null" stroke-linecap="null" cx="294.241234" cy="122.028" rx="6.044844" ry="68.736048" transform="matrix(1.59363 -0.180569 0.243928 1.17969 -207.175 16.0924)" id="svg_41" style="stroke: rgb(255, 255, 255);" fill="rgb(0,0,0,0)"/>
        <path stroke-width="2" stroke-dasharray="null" stroke-linejoin="null" stroke-linecap="null" d="m265.491333,89.322708c-44.201721,-68.892057 26.090851,-80.755239 41.35498,-80.778368c15.265778,-0.02313 67.507141,11.00736 35.398621,81.490282c-32.108582,70.482346 -4.596191,95.076675 -32.757294,95.895081c-28.16272,0.81842 0.203857,-27.715408 -43.996307,-96.606995z" id="svg_42" style="stroke: rgb(255, 255, 255);" fill="rgb(0,0,0,0)"/>
        <ellipse stroke-width="2" stroke-dasharray="null" stroke-linejoin="null" stroke-linecap="null" cx="315.317562" cy="117.35387" id="svg_43" rx="7.333333" ry="49.333333" transform="matrix(1.6115 0.0347456 -0.0469374 1.19292 -186.682 -75.3097)" style="stroke: rgb(255, 255, 255);" fill="rgb(0,0,0,0)"/>
        <ellipse stroke-width="2" stroke-dasharray="null" stroke-linejoin="null" stroke-linecap="null" cx="308.43784" cy="131.967472" id="svg_44" rx="4.999998" ry="70.000004" transform="matrix(1.61219 -2.76596e-007 3.7365e-007 1.19343 -190.45 -60.3716)" style="stroke: rgb(255, 255, 255);" fill="rgb(0,0,0,0)"/>
        <path stroke-width="2" stroke-dasharray="null" stroke-linejoin="null" stroke-linecap="null" d="m275.164337,90.118362c-44.201752,-68.892103 17.492615,-79.164012 32.756744,-79.187153c15.265778,-0.023149 53.534851,15.781061 21.426331,86.263981c-32.108551,70.482483 7.226563,89.507324 -20.93457,90.325745c-28.16272,0.81842 10.95163,-28.511078 -33.248505,-97.402588l0,0.000015z" id="svg_45" style="stroke: rgb(255, 255, 255);" fill="rgb(0,0,0,0)"/>
        <path stroke-width="2" stroke-dasharray="null" stroke-linejoin="null" stroke-linecap="null" d="m274.082184,70.793457c-24.858307,-38.756588 14.264465,-60.670417 33.82785,-59.064637c19.563446,1.60577 34.190399,28.370011 20.355804,63.052751c-13.834595,34.682777 -15.33493,111.162186 -22.002533,109.55629c-6.667572,-1.605881 -7.322876,-74.787827 -32.181122,-113.544403z" id="svg_46" style="stroke: rgb(255, 255, 255);" fill="rgb(0,0,0,0)"/>
      </g>
    </g>
  </g>
</svg>